<svg width="239" height="169" viewBox="0 0 239 169" fill="none" xmlns="http://www.w3.org/2000/svg">
<g clip-path="url(#clip0_3803_24087)">
<path fill-rule="evenodd" clip-rule="evenodd" d="M21.8242 98.6435L23.7961 98.388L26.2854 99.0986L26.2912 99.0993L26.2927 99.1007L30.387 102.737L30.5566 102.872L34.6816 105.311L41.4567 104.529L43.616 105.343L44.0058 105.432L44.5343 105.689L45.0733 105.892L45.9242 106.253L47.3348 107.062L47.7983 107.29L48.1831 107.455L48.309 107.508L49.4842 108.008L55.4167 110.139L58.4989 110.727L58.5149 110.684L58.936 109.541L60.434 107.374L60.4636 107.393L60.6501 107.233L64.3837 109.723L65.4308 111.973L67.5192 113.013L68.6917 113.715L69.5006 108.022L70.3019 106.172L72.7108 100.785L74.1338 98.136L75.8284 94.1178L76.1579 92.8492L76.93 86.606L78.1521 81.9644L78.9712 76.0767L79.4893 74.6597L78.8807 73.3557L79.1339 72.6731L79.2204 70.8908L78.1664 67.8306L77.7865 66.7283L74.8616 64.1093L75.4212 61.8549L74.6403 59.6639L74.4218 59.0523L69.9418 52.0605L68.7904 51.0861L66.6221 50.5445L66.0243 50.0879L64.4036 48.8499L64.4036 48.8498L61.4289 46.9768L58.618 45.5313L55.5575 42.5731L55.5575 42.573L55.0597 40.9962L54.8844 40.4407L54.8617 40.3686L55.1274 39.4665L55.2001 39.2195L55.4981 38.208L57.1597 33.3093L57.2365 29.4156L57.0652 28.1783L56.9118 27.0702L56.3419 23.8979L56.3047 23.6906L56.301 23.6702L56.763 20.6564L56.8831 19.8726L57.4491 18.0278L58.0637 14.0958L58.1697 14.1378L58.8725 14.4162L59.5105 14.6691L61.0352 16.1157L61.1658 16.2468L63.4112 18.4998L65.726 19.9066L67.9987 21.797L69.3079 21.4388L73.8886 22.2023L77.6088 23.3056L79.5955 23.4844L82.7908 22.8451L86.5341 22.3604L88.913 22.1618L90.0773 22.0646L90.462 22.0325L93.4141 22.1407L96.8681 22.3237L98.8643 22.0246L104.935 22.0467L107.099 22.104L107.295 22.1092L106.985 22.8536L105.765 24.5191L104.894 26.3846L104.503 28.2963L104.948 29.8637L106.258 31.595L108.083 32.0697L108.179 32.0945L108.217 32.1046L109.176 32.5012L109.241 32.5282L110.033 32.8559L112.565 33.3955L112.953 33.4594L116.642 34.0686L118.277 34.2526L122.653 34.7703L126.944 35.3598L133.44 36.3641L139.21 39.0085L140.509 39.5193L144.451 41.7183L143.169 43.4152L142.115 45.5609L146.414 46.5727L151.105 47.7621L154.212 47.9338L159.566 48.5086L161.049 48.6197L163.391 46.7457L165.82 45.3194L167.814 44.8563L169.887 44.7025L172.61 44.5884L176.255 43.8379L177.189 42.7721L178.928 43.0276L179.677 42.8621L180.238 43.143L182.95 40.1836L181.623 39.3836L184.119 36.8959L185.252 35.9068L185.479 35.9983L188.996 37.4128L189.8 37.7192L193.644 39.3841L198.215 41.3696L198.317 41.3904L203.989 42.5502L209.748 43.6062L210.753 45.5121L210.596 46.8051L210.493 47.6586L210.307 48.5429L206.466 47.84L202.485 47.2546L195.627 48.1172L194.387 49.2883L194.457 50.8738L192.505 56.4636L190.62 61.8687L191.049 63.1892L190.659 66.0746L193.372 64.9349L194.027 65.8713L192.421 66.9976L195.031 67.5341L195.32 67.9262L194.893 70.294L196.196 68.9969L197.96 70.1257L198.005 72.7391L196.805 71.4692L195.397 72.3447L197.058 73.6275L196.906 73.9988L195.278 74.315L195.897 76.6143L197.158 77.7806L197.042 78.7842L195.873 79.7972L195.108 79.5915L195.165 80.2414L196.189 80.7694L196.396 82.0788L195.669 82.5319L195.797 83.5531L194.642 84.6452L193.431 84.9402L191.492 83.4952L190.963 82.8528L186.166 84.9763L184.92 85.8361L182.638 87.4085L183.111 88.8549L181.909 88.7043L181.007 87.758L179.485 89.0415L181.038 90.4491L179.925 90.2958L178.606 91.2489L179.025 91.8293L177.857 93.0631L177.609 93.2253L179.541 94.6274L177.714 96.024L177.045 94.6137L175.357 94.9585L173.533 96.0833L171.964 97.3232L170.415 98.5475L171.47 100.582L167.692 106.124L165.817 107.914L164.701 107.434L166.395 106.782L165.983 103.371L165.171 101.74L163.92 100.713L162.973 99.9986L162.081 99.3412L161.208 98.4262L160.665 98.2157L160.224 98.029L160.036 97.8205L159.887 97.5698L159.665 97.1508L159.379 97.1181L159.282 98.7314L158.908 98.602L158.175 98.4337L157.316 98.2695L156.074 98.279L155.435 98.0522L154.124 97.7149L153.456 97.8192L152.229 99.9305L154.399 102.272L153.326 103.665L154.21 104.21L153.735 105.564L153.565 106.049L142.688 103.072L139.441 102.04L139.336 101.703L138.206 102.122L136.78 102.273L135.458 102.671L134.462 100.817L133.609 100.76L131.897 100.995L130.976 102.702L130.879 104.33L131.795 105.18L130.245 106.507L127.483 107.026L126.589 106.484L126.381 109.111L124.739 122.529L124.213 122.695L125.196 125.19L125.502 125.957L123.024 128.764L120.98 129.692L120.904 131.314L121.871 132.527L121.49 133.519L118.137 132.161L117.431 133.149L116.3 132.787L115.049 131.426L113.229 128.001L111.895 125.312L111.796 124.048L113.634 122.291L111.828 120.079L107.749 117.274L107.524 114.767L106.126 114.668L105.04 114.79L103.568 117.147L102.166 117.491L101.355 117.443L98.7479 120.076L100.73 122.978L99.3423 123.149L97.3426 125.535L97.9609 125.962L99.7964 125.263L99.8264 126.425L101.894 127.441L100.258 128.611L99.6773 129.893L100.41 130.84L100.978 130.729L101.856 129.63L102.678 130.043L101.853 131.218L100.068 132.069L100.244 132.926L102.189 132.491L102.959 134.516L101.168 134.363L100.844 135.904L101.807 136.827L103.762 135.777L104.02 136.778L102.077 137.597L101.202 138.617L101.604 139.019L103.484 138.896L103.866 139.513L102.793 140.25L103.074 140.841L104.369 141.409L104.146 142.522L102.768 143.015L103.127 145.667L100.635 148.079L96.9784 147.809L93.3685 146.653L93.3311 145.761L94.7922 145.284L94.769 144.37L93.6293 144.301L93.4482 142.385L91.87 140.492L91.1762 139.829L86.59 141.356L83.4628 139.155L77.8716 136.008L72.5222 134.694L72.0217 134.626L71.3661 136.608L70.6675 135.585L70.0602 135.78L68.8612 138.181L67.3788 137.151L67.3696 138.487L67.4478 139.843H67.4455L66.7795 135.46L66.6802 134.89L66.3646 134.303L66.1883 133.309L65.9445 132.216L65.3792 129.519L63.511 129.169L61.2339 128.71L58.9576 128.24L57.4487 127.869L58.1322 126.387L58.7229 123.814L58.6512 118.896L56.1645 119.764L52.143 119.141L49.2617 117.903L47.2891 116.684L44.6759 114.778L42.8321 113.266L41.1491 112.033L37.4805 110.565L32.6129 108.49L31.1286 107.857L29.7188 106.818L28.173 105.781L28.1045 105.721L27.3702 105.064L25.3278 103.105L21.8476 98.6442L21.8242 98.6435Z" fill="white" stroke="#232323" stroke-width="0.982432" stroke-linecap="square" stroke-linejoin="bevel"/>
</g>
<g clip-path="url(#clip1_3803_24087)">
<path d="M84.3003 36.4844L83.0385 36.195L81.6212 35.87L80.1598 35.5348C79.899 35.4751 79.6504 35.6731 79.6504 35.9406V37.4136C79.6504 37.6436 79.8368 37.8299 80.0668 37.8299H84.2073C84.4373 37.8299 84.6237 37.6436 84.6237 37.4136V36.8902C84.6236 36.6961 84.4895 36.5278 84.3003 36.4844Z" fill="#54B2A2"/>
<path d="M78.5961 31.6302C78.4978 32.7975 77.2812 32.9819 77.2812 32.9819C78.3257 33.031 78.586 34.4011 78.586 34.4011C78.6083 33.4242 79.9307 32.9674 79.9307 32.9674C78.9401 32.9081 78.5961 31.6302 78.5961 31.6302Z" fill="#EEB51B"/>
<path d="M79.9389 32.8162C79.0703 32.7642 78.7445 31.6024 78.7413 31.5906C78.7222 31.5198 78.6558 31.4731 78.5814 31.4794C78.5082 31.486 78.4504 31.5442 78.4442 31.6174C78.3574 32.6488 77.3021 32.8252 77.2576 32.8322C77.1806 32.8438 77.1251 32.9119 77.1291 32.9897C77.1332 33.0675 77.1954 33.1295 77.2733 33.1332C78.1846 33.1761 78.4341 34.417 78.4364 34.4296C78.4503 34.5013 78.5131 34.5524 78.5851 34.5524C78.5893 34.5524 78.5935 34.5523 78.5978 34.5519C78.675 34.5454 78.7348 34.4819 78.7366 34.4046C78.7561 33.5457 79.9671 33.1148 79.9794 33.1106C80.0477 33.0869 80.0897 33.0183 80.0798 32.9467C80.0699 32.8752 80.0108 32.8206 79.9389 32.8162ZM78.5694 33.8606C78.4324 33.5447 78.195 33.1634 77.8035 32.9646C78.0994 32.8228 78.4504 32.5696 78.6314 32.1295C78.788 32.4395 79.0554 32.824 79.4727 33.0099C79.1691 33.1755 78.7739 33.4547 78.5694 33.8606Z" fill="#3A312A"/>
<path d="M76.4065 33.3444C76.3369 34.1701 75.4766 34.3005 75.4766 34.3005C76.2153 34.3352 76.3994 35.3043 76.3994 35.3043C76.4151 34.6133 77.3504 34.2902 77.3504 34.2902C76.6498 34.2483 76.4065 33.3444 76.4065 33.3444Z" fill="#EEB51B"/>
<path d="M77.3586 34.139C76.7764 34.1042 76.5539 33.3128 76.5517 33.3047C76.5326 33.2338 76.4645 33.1878 76.392 33.1935C76.3188 33.2 76.2608 33.2583 76.2547 33.3316C76.1962 34.0252 75.4828 34.1459 75.4529 34.1506C75.3759 34.1622 75.3204 34.2304 75.3244 34.3081C75.3285 34.3858 75.3907 34.4478 75.4686 34.4516C76.0778 34.4802 76.2483 35.3241 76.2498 35.3324C76.2635 35.4044 76.3264 35.4556 76.3985 35.4556C76.4026 35.4556 76.4069 35.4554 76.4111 35.4551C76.4883 35.4486 76.5482 35.385 76.55 35.3076C76.5631 34.7313 77.391 34.436 77.3992 34.4332C77.4674 34.4096 77.5095 34.341 77.4997 34.2695C77.4897 34.198 77.4307 34.1434 77.3586 34.139ZM76.391 34.825C76.2978 34.6347 76.1548 34.4265 75.9421 34.292C76.1294 34.1869 76.3153 34.0265 76.4338 33.7956C76.5405 33.9848 76.7017 34.1949 76.9326 34.323C76.746 34.4341 76.5299 34.5995 76.391 34.825Z" fill="#3A312A"/>
<path d="M76.4065 30.6533C76.3369 31.479 75.4766 31.6094 75.4766 31.6094C76.2153 31.6441 76.3994 32.6132 76.3994 32.6132C76.4152 31.9223 77.3505 31.5992 77.3505 31.5992C76.6498 31.5572 76.4065 30.6533 76.4065 30.6533Z" fill="#EEB51B"/>
<path d="M77.3586 31.448C76.7788 31.4133 76.5556 30.6278 76.5517 30.6139C76.5327 30.5429 76.4646 30.4965 76.392 30.5025C76.3188 30.5091 76.2608 30.5674 76.2547 30.6406C76.1962 31.3342 75.4828 31.4549 75.4529 31.4596C75.3759 31.4712 75.3204 31.5394 75.3244 31.6172C75.3285 31.6949 75.3907 31.7569 75.4686 31.7606C76.0778 31.7893 76.2483 32.6332 76.2498 32.6415C76.2635 32.7134 76.3264 32.7647 76.3985 32.7647C76.4026 32.7647 76.4069 32.7646 76.4111 32.7642C76.4883 32.7578 76.5482 32.6941 76.55 32.6167C76.5631 32.0404 77.391 31.7451 77.3992 31.7423C77.4674 31.7187 77.5095 31.6501 77.4997 31.5785C77.4897 31.5071 77.4307 31.4524 77.3586 31.448ZM76.391 32.134C76.2978 31.9437 76.1548 31.7356 75.9421 31.601C76.1294 31.4959 76.3153 31.3356 76.4338 31.1047C76.5405 31.2939 76.7016 31.5039 76.9326 31.632C76.746 31.7432 76.5299 31.9086 76.391 32.134Z" fill="#3A312A"/>
<path d="M94.2666 32.3281C95.3915 32.1115 96.1278 31.024 95.9112 29.8991C95.6946 28.7742 94.607 28.0379 93.4821 28.2545C92.3572 28.4711 91.6209 29.5586 91.8375 30.6835C92.0542 31.8085 93.1417 32.5448 94.2666 32.3281Z" fill="#EEB51B"/>
<path d="M93.8721 28.0654C92.6449 28.0654 91.6465 29.0637 91.6465 30.2909C91.6465 31.5181 92.6449 32.5164 93.8721 32.5164C95.0992 32.5164 96.0976 31.5181 96.0976 30.2909C96.0976 29.0638 95.0992 28.0654 93.8721 28.0654ZM93.8721 32.2137C92.8118 32.2137 91.9493 31.3512 91.9493 30.291C91.9493 29.2309 92.8118 28.3683 93.8721 28.3683C94.9323 28.3683 95.7948 29.2308 95.7948 30.291C95.7948 31.3513 94.9323 32.2137 93.8721 32.2137Z" fill="#3A312A"/>
<path d="M93.8735 27.0615C93.7924 27.0615 93.7266 27.1273 93.7266 27.2084V27.507C93.7266 27.5882 93.7924 27.654 93.8735 27.654C93.9547 27.654 94.0205 27.5882 94.0205 27.507V27.2084C94.0205 27.1272 93.9547 27.0615 93.8735 27.0615Z" fill="#3A312A"/>
<path d="M93.8735 32.9279C93.7924 32.9279 93.7266 32.9937 93.7266 33.0749V33.3735C93.7266 33.4547 93.7924 33.5205 93.8735 33.5205C93.9547 33.5205 94.0205 33.4547 94.0205 33.3735V33.0749C94.0205 32.9937 93.9547 32.9279 93.8735 32.9279Z" fill="#3A312A"/>
<path d="M96.1555 28.0074C96.098 27.9499 96.0051 27.9499 95.9476 28.0074L95.7364 28.2186C95.679 28.276 95.679 28.3691 95.7364 28.4264C95.7939 28.4838 95.8868 28.4838 95.9443 28.4264L96.1555 28.2152C96.2129 28.1578 96.2129 28.0647 96.1555 28.0074Z" fill="#3A312A"/>
<path d="M92.009 32.1556C91.9515 32.0981 91.8586 32.0981 91.8011 32.1556L91.59 32.3667C91.5325 32.4242 91.5325 32.5173 91.59 32.5746C91.6474 32.632 91.7404 32.632 91.7978 32.5746L92.009 32.3634C92.0663 32.3061 92.0663 32.213 92.009 32.1556Z" fill="#3A312A"/>
<path d="M96.9553 30.144H96.6567C96.5756 30.144 96.5098 30.2098 96.5098 30.291C96.5098 30.3721 96.5756 30.4379 96.6567 30.4379H96.9553C97.0365 30.4379 97.1023 30.3721 97.1023 30.291C97.1024 30.2098 97.0366 30.144 96.9553 30.144Z" fill="#3A312A"/>
<path d="M91.0882 30.144H90.7896C90.7084 30.144 90.6426 30.2098 90.6426 30.291C90.6426 30.3721 90.7084 30.4379 90.7896 30.4379H91.0882C91.1693 30.4379 91.2351 30.3721 91.2351 30.291C91.2351 30.2098 91.1693 30.144 91.0882 30.144Z" fill="#3A312A"/>
<path d="M96.1555 32.3667L95.9443 32.1556C95.8868 32.0981 95.7938 32.0981 95.7364 32.1556C95.679 32.213 95.679 32.306 95.7364 32.3634L95.9476 32.5746C96.0051 32.632 96.0981 32.632 96.1555 32.5746C96.2129 32.5173 96.2129 32.4242 96.1555 32.3667Z" fill="#3A312A"/>
<path d="M92.009 28.2186L91.7978 28.0074C91.7404 27.9499 91.6473 27.9499 91.59 28.0074C91.5325 28.0648 91.5325 28.1579 91.59 28.2152L91.8011 28.4264C91.8586 28.4837 91.9515 28.4838 92.009 28.4264C92.0663 28.369 92.0663 28.2759 92.009 28.2186Z" fill="#3A312A"/>
<path d="M95.0124 28.7429C95.2486 29.0619 95.388 29.4566 95.388 29.8836C95.388 30.9436 94.5249 31.8056 93.4649 31.8056C93.0379 31.8056 92.6442 31.6653 92.3242 31.4291C92.6745 31.9046 93.2378 32.2135 93.8727 32.2135C94.9327 32.2135 95.7958 31.3514 95.7958 30.2904C95.7958 29.6565 95.4869 29.0932 95.0124 28.7429Z" fill="white"/>
<path d="M78.3775 41.1216C76.0358 41.1216 74.1309 43.0266 74.1309 45.3683C74.1309 47.7099 76.0358 49.6149 78.3775 49.6149C80.7191 49.6149 82.624 47.7099 82.624 45.3683C82.6241 43.0266 80.7191 41.1216 78.3775 41.1216ZM78.3775 48.748C76.5139 48.748 74.9977 47.2318 74.9977 45.3682C74.9977 43.5046 76.5138 41.9885 78.3775 41.9885C80.2411 41.9885 81.7572 43.5046 81.7572 45.3682C81.7573 47.2318 80.2411 48.748 78.3775 48.748Z" fill="#555555"/>
<path d="M78.3785 40.9702C75.9535 40.9702 73.9805 42.9431 73.9805 45.3682C73.9805 47.7932 75.9535 49.7662 78.3785 49.7662C80.8036 49.7662 82.7765 47.7932 82.7765 45.3682C82.7765 42.9431 80.8036 40.9702 78.3785 40.9702ZM78.3785 49.4634C76.1204 49.4634 74.2833 47.6262 74.2833 45.3682C74.2833 43.1101 76.1204 41.2731 78.3785 41.2731C80.6366 41.2731 82.4736 43.1101 82.4736 45.3682C82.4736 47.6263 80.6366 49.4634 78.3785 49.4634ZM78.3785 41.837C76.4314 41.837 74.8473 43.4211 74.8473 45.3682C74.8473 47.3153 76.4314 48.8994 78.3785 48.8994C80.3256 48.8994 81.9096 47.3153 81.9096 45.3682C81.9096 43.4211 80.3256 41.837 78.3785 41.837ZM78.3785 48.5966C76.5983 48.5966 75.1501 47.1484 75.1501 45.3683C75.1501 43.5882 76.5984 42.14 78.3785 42.14C80.1586 42.14 81.6068 43.5882 81.6068 45.3683C81.6068 47.1484 80.1585 48.5966 78.3785 48.5966Z" fill="#3A312A"/>
<path d="M92.8619 41.1216C90.5202 41.1216 88.6152 43.0266 88.6152 45.3683C88.6152 47.7099 90.5202 49.6149 92.8619 49.6149C95.2034 49.6149 97.1084 47.7099 97.1084 45.3683C97.1084 43.0266 95.2034 41.1216 92.8619 41.1216ZM92.8619 48.748C90.9983 48.748 89.4821 47.2318 89.4821 45.3682C89.4821 43.5046 90.9983 41.9885 92.8619 41.9885C94.7254 41.9885 96.2416 43.5046 96.2416 45.3682C96.2416 47.2318 94.7254 48.748 92.8619 48.748Z" fill="#555555"/>
<path d="M92.8609 40.9702C90.4359 40.9702 88.4629 42.9431 88.4629 45.3682C88.4629 47.7932 90.4359 49.7662 92.8609 49.7662C95.286 49.7662 97.2589 47.7932 97.2589 45.3682C97.259 42.9431 95.2861 40.9702 92.8609 40.9702ZM92.8609 49.4634C90.6029 49.4634 88.7657 47.6262 88.7657 45.3682C88.7657 43.1101 90.6029 41.2731 92.8609 41.2731C95.119 41.2731 96.9561 43.1101 96.9561 45.3682C96.9562 47.6263 95.119 49.4634 92.8609 49.4634ZM92.8609 41.837C90.9138 41.837 89.3297 43.4211 89.3297 45.3682C89.3297 47.3153 90.9138 48.8994 92.8609 48.8994C94.808 48.8994 96.3921 47.3153 96.3921 45.3682C96.3922 43.4211 94.808 41.837 92.8609 41.837ZM92.8609 48.5966C91.0807 48.5966 89.6326 47.1484 89.6326 45.3683C89.6326 43.5882 91.0808 42.14 92.8609 42.14C94.641 42.14 96.0892 43.5882 96.0892 45.3683C96.0893 47.1484 94.641 48.5966 92.8609 48.5966Z" fill="#3A312A"/>
<path d="M93.2173 45.1773L90.1687 39.5041V35.6065C90.1687 35.3835 89.988 35.2028 89.7649 35.2028H88.8251V36.0103H89.3612V39.2023H81.879V37.8304H81.0714V39.5041L78.0228 45.1773C77.9552 45.3025 77.9592 45.4539 78.0319 45.575C78.1046 45.6972 78.2368 45.7719 78.3781 45.7719H86.7305C86.7527 45.7719 86.7749 45.7699 86.7961 45.7658C86.8021 45.7648 86.8092 45.7638 86.8153 45.7618C86.8314 45.7588 86.8466 45.7547 86.8607 45.7497C86.8678 45.7467 86.8748 45.7446 86.8809 45.7426C86.9011 45.7345 86.9213 45.7244 86.9394 45.7133C86.9425 45.7123 86.9445 45.7103 86.9465 45.7093C86.9637 45.6982 86.9798 45.6861 86.995 45.672C86.997 45.6699 87 45.6689 87.003 45.6669C87.0051 45.6649 87.0071 45.6619 87.0091 45.6598C87.0252 45.6447 87.0394 45.6275 87.0535 45.6104C87.0545 45.6084 87.0565 45.6063 87.0575 45.6043C87.0686 45.5892 87.0787 45.573 87.0878 45.5559L89.768 40.4651L92.5056 45.5599C92.5793 45.6952 92.7186 45.7719 92.862 45.7719C92.9266 45.7719 92.9922 45.7568 93.0528 45.7234C93.2496 45.6185 93.3233 45.3732 93.2173 45.1773ZM79.3068 44.8129L81.5933 40.559L85.4727 44.8129H79.3068ZM86.6083 44.4101L82.733 40.1613H88.8453L86.6083 44.4101Z" fill="#EB3040"/>
<path d="M93.3512 45.1056L90.3208 39.4657V35.6065C90.3208 35.3007 90.0715 35.0513 89.7656 35.0513H88.8258C88.742 35.0513 88.6744 35.119 88.6744 35.2028V36.0103C88.6744 36.0941 88.742 36.1617 88.8258 36.1617H89.2104V39.0508H82.0311V37.8304C82.0311 37.7466 81.9634 37.679 81.8796 37.679H81.0721C80.9883 37.679 80.9206 37.7466 80.9206 37.8304V39.4657L77.8902 45.1056C77.7984 45.2762 77.8024 45.4862 77.9023 45.6528C78.0023 45.8193 78.184 45.9233 78.3788 45.9233H86.7311C86.7634 45.9233 86.7947 45.9203 86.823 45.9152C86.8321 45.9132 86.8412 45.9112 86.8513 45.9092C86.8725 45.9051 86.8937 45.8991 86.9128 45.892C86.9149 45.891 86.9209 45.889 86.9229 45.888C86.927 45.887 86.934 45.8849 86.9381 45.8829C86.9643 45.8728 86.9916 45.8587 87.0168 45.8446C87.0198 45.8425 87.0219 45.8405 87.0249 45.8395C87.0269 45.8385 87.0279 45.8375 87.0299 45.8365C87.0491 45.8234 87.0673 45.8102 87.0855 45.7941C87.0865 45.7941 87.0865 45.7931 87.0875 45.7931C87.0966 45.787 87.1046 45.78 87.1117 45.7729C87.1137 45.7709 87.1168 45.7668 87.1198 45.7638C87.138 45.7466 87.1541 45.7275 87.1713 45.7073C87.1743 45.7022 87.1783 45.6972 87.1814 45.6921L87.1824 45.6911C87.1975 45.6709 87.2106 45.6497 87.2228 45.6265L89.7696 40.7871L92.3731 45.6326C92.471 45.8123 92.6587 45.9233 92.8627 45.9233C92.9555 45.9233 93.0464 45.9001 93.1251 45.8567C93.2553 45.787 93.3512 45.6699 93.3946 45.5276C93.437 45.3863 93.4219 45.2359 93.3512 45.1056ZM93.1039 45.4408C93.0847 45.5054 93.0413 45.5579 92.9808 45.5912C92.9444 45.6104 92.9051 45.6205 92.8627 45.6205C92.7698 45.6205 92.684 45.57 92.6396 45.4882L89.9019 40.3934C89.8756 40.344 89.8242 40.3137 89.7686 40.3137C89.7686 40.3137 89.7686 40.3137 89.7676 40.3137C89.7121 40.3137 89.6606 40.345 89.6344 40.3944L86.9542 45.4852C86.9492 45.4953 86.9431 45.5054 86.9361 45.5155C86.9351 45.5165 86.934 45.5185 86.932 45.5195C86.925 45.5296 86.9159 45.5397 86.9038 45.5518C86.8997 45.5549 86.8957 45.5579 86.8927 45.5609C86.8846 45.569 86.8765 45.575 86.8674 45.5811C86.8654 45.5821 86.8634 45.5831 86.8614 45.5841C86.8503 45.5912 86.8381 45.5972 86.8311 45.6003C86.822 45.6023 86.8119 45.6063 86.8099 45.6073C86.8028 45.6094 86.7957 45.6114 86.7877 45.6134C86.7816 45.6144 86.7766 45.6154 86.7715 45.6174H86.7685C86.7564 45.6195 86.7433 45.6205 86.7311 45.6205H78.3788C78.291 45.6205 78.2082 45.573 78.1628 45.4973C78.1173 45.4216 78.1153 45.3267 78.1567 45.249L81.2053 39.5758C81.2174 39.5536 81.2235 39.5293 81.2235 39.5041V37.9818H81.7282V39.2023C81.7282 39.2861 81.7958 39.3537 81.8796 39.3537H89.3618C89.4456 39.3537 89.5132 39.2861 89.5132 39.2023V36.0103C89.5132 35.9265 89.4456 35.8589 89.3618 35.8589H88.9772V35.3542H89.7656C89.9049 35.3542 90.018 35.4672 90.018 35.6065V39.5041C90.018 39.5293 90.024 39.5536 90.0361 39.5758L93.0847 45.249C93.117 45.3085 93.1241 45.3762 93.1039 45.4408Z" fill="#3A312A"/>
<path d="M85.9283 44.8623L81.6734 40.1966C81.64 40.1602 81.5916 40.1421 81.5431 40.1481C81.4937 40.1542 81.4513 40.1835 81.4281 40.2269L78.9205 44.8926C78.8953 44.9401 78.8963 44.9966 78.9236 45.042C78.9508 45.0875 79.0003 45.1157 79.0538 45.1157H85.8162C85.8758 45.1157 85.9303 45.0804 85.9545 45.0259C85.9787 44.9704 85.9686 44.9068 85.9283 44.8623ZM79.3072 44.8129L81.5936 40.559L85.473 44.8129H79.3072Z" fill="#3A312A"/>
<path d="M89.2247 39.9311C89.1974 39.8857 89.149 39.8584 89.0955 39.8584H82.3896C82.33 39.8584 82.2755 39.8937 82.2513 39.9482C82.2271 40.0038 82.2372 40.0674 82.2775 40.1118L86.5294 44.7735C86.5587 44.8048 86.5991 44.823 86.6415 44.823C86.6475 44.823 86.6546 44.823 86.6606 44.822C86.7101 44.8159 86.7525 44.7856 86.7757 44.7422L89.2297 40.0805C89.254 40.033 89.253 39.9765 89.2247 39.9311ZM86.6082 44.4101L82.7328 40.1612H88.8451L86.6082 44.4101Z" fill="#3A312A"/>
<path d="M84.3353 36.3369L83.0734 36.0475C82.992 36.0287 82.9108 36.0798 82.892 36.1613C82.8732 36.2428 82.9242 36.324 83.0058 36.3427L84.2676 36.6321C84.3887 36.6598 84.4732 36.766 84.4732 36.8903V37.4137C84.4732 37.5598 84.3544 37.6787 84.2084 37.6787H80.0677C79.9217 37.6787 79.8028 37.5599 79.8028 37.4137V35.9407C79.8028 35.8595 79.8392 35.784 79.9027 35.7335C79.9662 35.683 80.0476 35.6644 80.127 35.6825L81.5885 36.0176C81.6704 36.0365 81.7512 35.9853 81.7699 35.904C81.7887 35.8224 81.7377 35.7412 81.6561 35.7225L80.1946 35.3874C80.0253 35.3484 79.85 35.3883 79.714 35.4967C79.5779 35.605 79.5 35.7669 79.5 35.9408V37.4138C79.5 37.7269 79.7546 37.9816 80.0677 37.9816H84.2084C84.5215 37.9816 84.7761 37.7269 84.7761 37.4138V36.8904C84.7761 36.624 84.5948 36.3965 84.3353 36.3369Z" fill="#3A312A"/>
<path d="M84.3353 36.3369L83.0734 36.0475C82.992 36.0287 82.9108 36.0798 82.892 36.1613C82.8732 36.2428 82.9242 36.324 83.0058 36.3427L84.2676 36.6321C84.3887 36.6598 84.4732 36.766 84.4732 36.8903V37.4137C84.4732 37.5598 84.3544 37.6787 84.2084 37.6787H80.0677C79.9217 37.6787 79.8028 37.5599 79.8028 37.4137V35.9407C79.8028 35.8595 79.8392 35.784 79.9027 35.7335C79.9662 35.683 80.0476 35.6644 80.127 35.6825L81.5885 36.0176C81.6704 36.0365 81.7512 35.9853 81.7699 35.904C81.7887 35.8224 81.7377 35.7412 81.6561 35.7225L80.1946 35.3874C80.0253 35.3484 79.85 35.3883 79.714 35.4967C79.5779 35.605 79.5 35.7669 79.5 35.9408V37.4138C79.5 37.7269 79.7546 37.9816 80.0677 37.9816H84.2084C84.5215 37.9816 84.7761 37.7269 84.7761 37.4138V36.8904C84.7761 36.624 84.5948 36.3965 84.3353 36.3369Z" fill="#3A312A"/>
<path d="M78.3789 44.4289C77.8601 44.4289 77.4395 44.8494 77.4395 45.3683C77.4395 45.887 77.86 46.3077 78.3789 46.3077C78.8976 46.3077 79.3183 45.8871 79.3183 45.3683C79.3183 44.8494 78.8977 44.4289 78.3789 44.4289Z" fill="#009FE7"/>
<path d="M78.3779 44.2775C77.7765 44.2775 77.2871 44.7668 77.2871 45.3683C77.2871 45.9698 77.7765 46.4591 78.3779 46.4591C78.9794 46.4591 79.4688 45.9698 79.4688 45.3683C79.4688 44.7668 78.9794 44.2775 78.3779 44.2775ZM78.3779 46.1562C77.9435 46.1562 77.5899 45.8028 77.5899 45.3682C77.5899 44.9336 77.9435 44.5802 78.3779 44.5802C78.8124 44.5802 79.1659 44.9337 79.1659 45.3682C79.1659 45.8027 78.8123 46.1562 78.3779 46.1562Z" fill="#3A312A"/>
<path d="M92.8613 44.4289C92.3425 44.4289 91.9219 44.8494 91.9219 45.3683C91.9219 45.887 92.3424 46.3077 92.8613 46.3077C93.3802 46.3077 93.8007 45.8871 93.8007 45.3683C93.8007 44.8494 93.3801 44.4289 92.8613 44.4289Z" fill="#009FE7"/>
<path d="M92.8623 44.2775C92.2609 44.2775 91.7715 44.7668 91.7715 45.3683C91.7715 45.9698 92.2609 46.4591 92.8623 46.4591C93.4638 46.4591 93.9532 45.9698 93.9532 45.3683C93.9532 44.7668 93.4638 44.2775 92.8623 44.2775ZM92.8623 46.1562C92.4278 46.1562 92.0743 45.8028 92.0743 45.3682C92.0743 44.9336 92.4278 44.5802 92.8623 44.5802C93.2968 44.5802 93.6503 44.9337 93.6503 45.3682C93.6503 45.8027 93.2968 46.1562 92.8623 46.1562Z" fill="#3A312A"/>
<path d="M88.5899 34.9226H86.714C86.5839 34.9226 86.4785 35.0281 86.4785 35.1581V36.0372C86.4785 36.1673 86.584 36.2727 86.714 36.2727H88.5899C88.72 36.2727 88.8254 36.1672 88.8254 36.0372V35.1581C88.8254 35.0281 88.7199 34.9226 88.5899 34.9226Z" fill="#54B2A2"/>
<path d="M88.5891 34.7712H86.7131C86.4998 34.7712 86.3262 34.9448 86.3262 35.1581V36.0372C86.3262 36.2506 86.4998 36.4241 86.7131 36.4241H88.5891C88.8024 36.4241 88.976 36.2506 88.976 36.0372V35.1581C88.976 34.9448 88.8024 34.7712 88.5891 34.7712ZM88.6732 36.0373C88.6732 36.0837 88.6354 36.1213 88.5891 36.1213H86.7131C86.6668 36.1213 86.629 36.0837 86.629 36.0373V35.1582C86.629 35.1119 86.6668 35.0741 86.7131 35.0741H88.5891C88.6354 35.0741 88.6732 35.1119 88.6732 35.1582V36.0373Z" fill="#3A312A"/>
<path d="M88.5899 34.9226H86.714C86.5839 34.9226 86.4785 35.0281 86.4785 35.1581V36.0372C86.4785 36.1673 86.584 36.2727 86.714 36.2727H88.5899C88.72 36.2727 88.8254 36.1672 88.8254 36.0372V35.1581C88.8254 35.0281 88.7199 34.9226 88.5899 34.9226Z" fill="#009FE7"/>
<path d="M88.5891 34.7712H86.7131C86.4998 34.7712 86.3262 34.9448 86.3262 35.1581V36.0372C86.3262 36.2506 86.4998 36.4241 86.7131 36.4241H88.5891C88.8024 36.4241 88.976 36.2506 88.976 36.0372V35.1581C88.976 34.9448 88.8024 34.7712 88.5891 34.7712ZM88.6732 36.0373C88.6732 36.0837 88.6354 36.1213 88.5891 36.1213H86.7131C86.6668 36.1213 86.629 36.0837 86.629 36.0373V35.1582C86.629 35.1119 86.6668 35.0741 86.7131 35.0741H88.5891C88.6354 35.0741 88.6732 35.1119 88.6732 35.1582V36.0373Z" fill="#3A312A"/>
<path d="M84.2675 36.632L83.5639 36.4705C83.6719 36.521 83.7426 36.629 83.7426 36.7532V37.3679C83.7426 37.5395 83.6033 37.6789 83.4316 37.6789H84.2079C84.3543 37.6789 84.4734 37.5597 84.4734 37.4134V36.8905C84.4734 36.7663 84.3886 36.6593 84.2675 36.632Z" fill="#0071A5"/>
</g>
<g clip-path="url(#clip2_3803_24087)">
<path d="M172.707 67.6831V69.2954C172.707 69.4109 172.798 69.5016 172.913 69.5016H173.627C173.742 69.5016 173.833 69.4109 173.833 69.2954V67.6831C173.833 67.5676 173.742 67.4769 173.627 67.4769H172.913C172.798 67.4769 172.707 67.5676 172.707 67.6831Z" fill="#009FE7"/>
<path d="M173.628 69.7037H172.914C172.688 69.7037 172.502 69.5182 172.502 69.2914V67.679C172.502 67.4522 172.688 67.2666 172.914 67.2666H173.628C173.855 67.2666 174.04 67.4522 174.04 67.679V69.2914C174.04 69.5182 173.855 69.7037 173.628 69.7037ZM172.914 67.6831V69.2955H173.628V67.6831H172.914Z" fill="#231F20"/>
<path d="M166.786 75.7821H162.646C162.53 75.7821 162.439 75.6914 162.439 75.5759C162.439 75.4605 162.53 75.3698 162.646 75.3698H166.786C166.901 75.3698 166.992 75.4605 166.992 75.5759C166.992 75.6914 166.897 75.7821 166.786 75.7821Z" fill="#C9C9C9"/>
<path d="M173.832 70.248H168.307V74.6687H173.832V70.248Z" fill="#C9C9C9"/>
<path d="M173.834 74.8749H168.308C168.192 74.8749 168.102 74.7842 168.102 74.6687V70.2481C168.102 70.1326 168.192 70.0419 168.308 70.0419H173.834C173.949 70.0419 174.04 70.1326 174.04 70.2481V74.6687C174.04 74.78 173.945 74.8749 173.834 74.8749ZM168.514 74.4625H173.627V70.4542H168.514V74.4625Z" fill="#231F20"/>
<path d="M171.896 74.6687H170.246V73.1141C170.246 72.9079 170.411 72.7429 170.617 72.7429H171.524C171.731 72.7429 171.896 72.9079 171.896 73.1141V74.6687Z" fill="#7A7979"/>
<path d="M171.895 74.8749H170.245C170.13 74.8749 170.039 74.7841 170.039 74.6687V73.114C170.039 72.7965 170.299 72.5367 170.616 72.5367H171.524C171.841 72.5367 172.101 72.7965 172.101 73.114V74.6687C172.101 74.78 172.01 74.8749 171.895 74.8749ZM170.451 74.4625H171.689V73.114C171.689 73.0233 171.614 72.9491 171.524 72.9491H170.616C170.526 72.9491 170.451 73.0233 170.451 73.114V74.4625Z" fill="#231F20"/>
<path d="M181.174 74.8749H160.968C160.852 74.8749 160.762 74.7842 160.762 74.6687C160.762 74.5532 160.852 74.4625 160.968 74.4625H181.174C181.29 74.4625 181.38 74.5532 181.38 74.6687C181.38 74.7842 181.29 74.8749 181.174 74.8749Z" fill="#231F20"/>
<path d="M181.174 82.4749H160.968C160.852 82.4749 160.762 82.3842 160.762 82.2687C160.762 82.1533 160.852 82.0625 160.968 82.0625H181.174C181.29 82.0625 181.38 82.1533 181.38 82.2687C181.38 82.3842 181.29 82.4749 181.174 82.4749Z" fill="#231F20"/>
<path d="M181.174 82.4749H160.968C160.852 82.4749 160.762 82.3842 160.762 82.2687C160.762 82.1533 160.852 82.0625 160.968 82.0625H181.174C181.29 82.0625 181.38 82.1533 181.38 82.2687C181.38 82.3842 181.29 82.4749 181.174 82.4749Z" fill="#231F20"/>
<path d="M162.587 71.9017C162.608 71.8439 162.616 71.7821 162.616 71.7161C162.616 71.3821 162.344 71.1099 162.014 71.1099C161.68 71.1099 161.412 71.3821 161.412 71.7161C161.412 71.7821 161.42 71.8439 161.441 71.9017C161.169 71.9635 160.967 72.2068 160.967 72.4913C160.967 72.8254 161.239 73.0975 161.569 73.0975C161.742 73.0975 161.903 73.0233 162.01 72.9037C162.121 73.0233 162.278 73.0975 162.451 73.0975C162.785 73.0975 163.053 72.8254 163.053 72.4913C163.062 72.2068 162.86 71.9635 162.587 71.9017Z" fill="#54B2A2"/>
<path d="M162.457 73.3037C162.3 73.3037 162.143 73.2584 162.015 73.1718C161.883 73.2584 161.731 73.3037 161.574 73.3037C161.125 73.3037 160.762 72.9408 160.762 72.4955C160.762 72.1862 160.939 71.9099 161.207 71.7738C161.207 71.7573 161.207 71.7408 161.207 71.7202C161.207 71.2748 161.57 70.9078 162.015 70.9078C162.461 70.9078 162.824 71.2707 162.824 71.7161C162.824 71.7326 162.824 71.7491 162.824 71.7697C163.092 71.9058 163.269 72.1862 163.269 72.4913C163.269 72.9408 162.902 73.3037 162.457 73.3037ZM162.015 72.6975C162.073 72.6975 162.127 72.7223 162.168 72.7635C162.242 72.846 162.349 72.8913 162.461 72.8913C162.679 72.8913 162.857 72.714 162.857 72.4913C162.857 72.3058 162.725 72.145 162.547 72.1037C162.49 72.0913 162.44 72.0542 162.411 72.0047C162.382 71.9553 162.374 71.8934 162.395 71.8398C162.407 71.7986 162.415 71.7573 162.415 71.7161C162.415 71.4975 162.238 71.3161 162.019 71.3161C161.801 71.3161 161.624 71.4934 161.624 71.7161C161.624 71.7573 161.632 71.7986 161.644 71.8398C161.661 71.8934 161.657 71.9553 161.628 72.0047C161.599 72.0542 161.549 72.0913 161.492 72.1037C161.31 72.145 161.182 72.3058 161.182 72.4913C161.182 72.7099 161.36 72.8913 161.578 72.8913C161.69 72.8913 161.793 72.846 161.871 72.7635C161.904 72.7223 161.958 72.6975 162.015 72.6975Z" fill="#231F20"/>
<path d="M162.015 74.8749C161.899 74.8749 161.809 74.7841 161.809 74.6687V72.9037C161.809 72.7883 161.899 72.6975 162.015 72.6975C162.13 72.6975 162.221 72.7883 162.221 72.9037V74.6687C162.221 74.78 162.126 74.8749 162.015 74.8749Z" fill="#231F20"/>
<path d="M164.683 71.9017C164.704 71.8439 164.712 71.7821 164.712 71.7161C164.712 71.3821 164.44 71.1099 164.11 71.1099C163.776 71.1099 163.508 71.3821 163.508 71.7161C163.508 71.7821 163.516 71.8439 163.537 71.9017C163.268 71.9635 163.066 72.2027 163.066 72.4913C163.066 72.8254 163.339 73.0975 163.668 73.0975C163.842 73.0975 164.002 73.0233 164.11 72.9037C164.221 73.0233 164.378 73.0975 164.551 73.0975C164.885 73.0975 165.153 72.8254 165.153 72.4913C165.153 72.2068 164.951 71.9635 164.683 71.9017Z" fill="#54B2A2"/>
<path d="M164.55 73.3037C164.393 73.3037 164.237 73.2584 164.109 73.1718C163.977 73.2584 163.824 73.3037 163.668 73.3037C163.222 73.3037 162.859 72.9408 162.859 72.4914C162.859 72.1821 163.037 71.9058 163.305 71.7697C163.305 71.7532 163.305 71.7367 163.305 71.7161C163.305 71.2707 163.668 70.9037 164.113 70.9037C164.558 70.9037 164.921 71.2666 164.921 71.7161C164.921 71.7326 164.921 71.7491 164.921 71.7697C165.189 71.9058 165.367 72.1862 165.367 72.4914C165.358 72.9408 164.995 73.3037 164.55 73.3037ZM164.105 72.6975C164.162 72.6975 164.216 72.7223 164.257 72.7635C164.332 72.846 164.439 72.8914 164.55 72.8914C164.769 72.8914 164.946 72.714 164.946 72.4914C164.946 72.3058 164.814 72.145 164.637 72.1037C164.579 72.0914 164.529 72.0542 164.501 72.0048C164.472 71.9553 164.464 71.8934 164.484 71.8398C164.496 71.7986 164.505 71.7573 164.505 71.7161C164.505 71.4975 164.327 71.3161 164.109 71.3161C163.89 71.3161 163.713 71.4934 163.713 71.7161C163.713 71.7573 163.721 71.7986 163.734 71.8398C163.75 71.8934 163.746 71.9553 163.717 72.0048C163.688 72.0542 163.639 72.0914 163.581 72.1037C163.4 72.145 163.272 72.3058 163.272 72.4914C163.272 72.7099 163.449 72.8914 163.668 72.8914C163.779 72.8914 163.882 72.846 163.96 72.7635C163.993 72.7223 164.047 72.6975 164.105 72.6975Z" fill="#231F20"/>
<path d="M164.105 74.8749C163.989 74.8749 163.898 74.7841 163.898 74.6687V72.9037C163.898 72.7883 163.989 72.6975 164.105 72.6975C164.22 72.6975 164.311 72.7883 164.311 72.9037V74.6687C164.311 74.78 164.22 74.8749 164.105 74.8749Z" fill="#231F20"/>
<path d="M178.609 71.9017C178.629 71.8439 178.638 71.7821 178.638 71.7161C178.638 71.3821 178.365 71.1099 178.035 71.1099C177.701 71.1099 177.433 71.3821 177.433 71.7161C177.433 71.7821 177.442 71.8439 177.462 71.9017C177.194 71.9635 176.992 72.2027 176.992 72.4913C176.992 72.8254 177.264 73.0975 177.594 73.0975C177.767 73.0975 177.928 73.0233 178.035 72.9037C178.147 73.0233 178.304 73.0975 178.477 73.0975C178.811 73.0975 179.079 72.8254 179.079 72.4913C179.083 72.2068 178.881 71.9635 178.609 71.9017Z" fill="#54B2A2"/>
<path d="M178.476 73.3037C178.319 73.3037 178.162 73.2584 178.035 73.1718C177.903 73.2584 177.75 73.3037 177.593 73.3037C177.148 73.3037 176.785 72.9408 176.785 72.4914C176.785 72.1821 176.962 71.9058 177.231 71.7697C177.231 71.7532 177.231 71.7367 177.231 71.7161C177.231 71.2707 177.593 70.9037 178.039 70.9037C178.484 70.9037 178.847 71.2666 178.847 71.7161C178.847 71.7326 178.847 71.7491 178.847 71.7697C179.115 71.9058 179.292 72.1862 179.292 72.4914C179.288 72.9408 178.921 73.3037 178.476 73.3037ZM178.035 72.6975C178.092 72.6975 178.146 72.7223 178.187 72.7635C178.261 72.846 178.369 72.8914 178.48 72.8914C178.699 72.8914 178.876 72.714 178.876 72.4914C178.876 72.3058 178.744 72.145 178.567 72.1037C178.509 72.0914 178.459 72.0542 178.431 72.0048C178.402 71.9553 178.393 71.8934 178.414 71.8398C178.426 71.7986 178.435 71.7573 178.435 71.7161C178.435 71.4975 178.257 71.3161 178.039 71.3161C177.82 71.3161 177.643 71.4934 177.643 71.7161C177.643 71.7573 177.651 71.7986 177.664 71.8398C177.68 71.8934 177.676 71.9553 177.647 72.0048C177.618 72.0542 177.569 72.0914 177.511 72.1037C177.329 72.145 177.202 72.3058 177.202 72.4914C177.202 72.7099 177.379 72.8914 177.598 72.8914C177.709 72.8914 177.812 72.846 177.89 72.7635C177.923 72.7223 177.977 72.6975 178.035 72.6975Z" fill="#231F20"/>
<path d="M178.034 74.8749C177.919 74.8749 177.828 74.7841 177.828 74.6687V72.9037C177.828 72.7883 177.919 72.6975 178.034 72.6975C178.15 72.6975 178.24 72.7883 178.24 72.9037V74.6687C178.24 74.78 178.146 74.8749 178.034 74.8749Z" fill="#231F20"/>
<path d="M180.702 71.9017C180.723 71.8439 180.731 71.7821 180.731 71.7161C180.731 71.3821 180.459 71.1099 180.129 71.1099C179.799 71.1099 179.527 71.3821 179.527 71.7161C179.527 71.7821 179.535 71.8439 179.556 71.9017C179.288 71.9635 179.086 72.2027 179.086 72.4913C179.086 72.8254 179.358 73.0975 179.688 73.0975C179.861 73.0975 180.022 73.0233 180.129 72.9037C180.241 73.0233 180.397 73.0975 180.57 73.0975C180.905 73.0975 181.173 72.8254 181.173 72.4913C181.173 72.2068 180.97 71.9635 180.702 71.9017Z" fill="#54B2A2"/>
<path d="M180.572 73.3037C180.415 73.3037 180.258 73.2584 180.13 73.1718C179.998 73.2584 179.846 73.3037 179.689 73.3037C179.244 73.3037 178.881 72.9408 178.881 72.4914C178.881 72.1821 179.058 71.9058 179.326 71.7697C179.326 71.7532 179.326 71.7367 179.326 71.7161C179.326 71.2707 179.689 70.9037 180.134 70.9037C180.58 70.9037 180.943 71.2666 180.943 71.7161C180.943 71.7326 180.943 71.7491 180.943 71.7697C181.211 71.9058 181.388 72.1862 181.388 72.4914C181.38 72.9408 181.017 73.3037 180.572 73.3037ZM180.126 72.6975C180.184 72.6975 180.238 72.7223 180.279 72.7635C180.353 72.846 180.46 72.8914 180.572 72.8914C180.79 72.8914 180.967 72.714 180.967 72.4914C180.967 72.3058 180.836 72.145 180.658 72.1037C180.6 72.0914 180.551 72.0542 180.522 72.0048C180.493 71.9553 180.485 71.8934 180.506 71.8398C180.518 71.7986 180.526 71.7573 180.526 71.7161C180.526 71.4975 180.349 71.3161 180.13 71.3161C179.912 71.3161 179.734 71.4934 179.734 71.7161C179.734 71.7573 179.743 71.7986 179.755 71.8398C179.772 71.8934 179.767 71.9553 179.739 72.0048C179.71 72.0542 179.66 72.0914 179.603 72.1037C179.421 72.145 179.293 72.3058 179.293 72.4914C179.293 72.7099 179.471 72.8914 179.689 72.8914C179.8 72.8914 179.904 72.846 179.982 72.7635C180.015 72.7223 180.068 72.6975 180.126 72.6975Z" fill="#231F20"/>
<path d="M180.126 74.8749C180.011 74.8749 179.92 74.7841 179.92 74.6687V72.9037C179.92 72.7883 180.011 72.6975 180.126 72.6975C180.242 72.6975 180.332 72.7883 180.332 72.9037V74.6687C180.332 74.78 180.242 74.8749 180.126 74.8749Z" fill="#231F20"/>
<path d="M171.28 62.0666C171.21 62.0624 171.14 62.0624 171.07 62.0624C171 62.0624 170.93 62.0624 170.86 62.0666C169.322 62.1078 167.969 62.6109 166.876 63.415C163.932 65.5841 162.876 69.947 165.235 73.345L170.047 80.2687C170.542 80.9821 171.602 80.9821 172.097 80.2687L176.909 73.345C180.142 68.681 176.955 62.2109 171.28 62.0666ZM171.07 74.3718C168.188 74.3718 165.854 72.0377 165.854 69.1553C165.854 66.2728 168.188 63.9387 171.07 63.9387C173.953 63.9387 176.287 66.2728 176.287 69.1553C176.287 72.0377 173.953 74.3718 171.07 74.3718Z" fill="#EB3040"/>
<path d="M171.07 81.011C170.596 81.011 170.147 80.7759 169.874 80.3883L165.066 73.4604C163.895 71.7779 163.479 69.7573 163.883 67.7655C163.907 67.6542 164.015 67.58 164.126 67.6047C164.237 67.6295 164.312 67.7367 164.287 67.848C163.903 69.7284 164.299 71.6377 165.404 73.2254L170.217 80.1491C170.415 80.4336 170.724 80.5945 171.07 80.5945C171.417 80.5945 171.73 80.4295 171.924 80.1491L176.736 73.2254C178.229 71.0769 178.411 68.3923 177.223 66.0501C176.06 63.749 173.833 62.3387 171.277 62.2727C171.14 62.2686 171 62.2686 170.864 62.2727C169.38 62.3098 167.99 62.8047 166.844 63.6954C166.753 63.7655 166.625 63.749 166.555 63.6583C166.485 63.5676 166.501 63.4398 166.592 63.3696C167.804 62.4212 169.281 61.9016 170.856 61.8604C170.996 61.8562 171.145 61.8562 171.289 61.8604C174.002 61.9305 176.361 63.4274 177.594 65.8645C178.184 67.0315 178.464 68.3264 178.398 69.6171C178.332 70.9862 177.874 72.314 177.074 73.4645L172.266 80.3883C171.994 80.7759 171.545 81.011 171.07 81.011Z" fill="#231F20"/>
<path d="M164.439 66.8171C164.414 66.8171 164.389 66.813 164.364 66.8047C164.257 66.7635 164.208 66.6439 164.249 66.5367C164.533 65.8109 164.921 65.1388 165.408 64.5367C165.478 64.4501 165.61 64.4336 165.696 64.5078C165.783 64.5779 165.799 64.7099 165.725 64.7965C165.263 65.3656 164.896 66.0006 164.628 66.6893C164.599 66.7676 164.521 66.8171 164.439 66.8171Z" fill="#231F20"/>
<path d="M166.084 64.2975C166.03 64.2975 165.977 64.2769 165.94 64.2356C165.861 64.1532 165.861 64.0253 165.94 63.9429C165.956 63.9264 165.973 63.9099 165.989 63.8934C166.072 63.815 166.199 63.815 166.282 63.8975C166.364 63.98 166.36 64.1078 166.278 64.1903C166.261 64.2068 166.245 64.2233 166.228 64.2398C166.191 64.2769 166.138 64.2975 166.084 64.2975Z" fill="#231F20"/>
<path d="M169.87 63.213C169.771 63.213 169.684 63.1429 169.668 63.0439C169.647 62.9325 169.721 62.8253 169.832 62.8047C169.865 62.8006 169.898 62.7923 169.931 62.7882C170.043 62.7676 170.15 62.8459 170.171 62.9573C170.191 63.0686 170.113 63.1758 170.002 63.1965C169.973 63.2006 169.94 63.2088 169.911 63.213C169.894 63.2088 169.882 63.213 169.87 63.213Z" fill="#DDD7EC"/>
<path d="M165.919 73.0728C165.853 73.0728 165.791 73.0439 165.75 72.9862C165.041 71.9635 164.632 70.7841 164.575 69.5759C164.517 68.4336 164.764 67.279 165.292 66.2439C166.084 64.6851 167.408 63.5346 169.024 63.0109C169.131 62.9738 169.247 63.0357 169.284 63.1429C169.321 63.2501 169.259 63.3656 169.152 63.4027C167.643 63.8934 166.401 64.9697 165.663 66.4295C165.168 67.4027 164.938 68.4831 164.991 69.5553C165.049 70.6893 165.428 71.7945 166.092 72.7512C166.158 72.846 166.133 72.9738 166.039 73.0398C166.001 73.0604 165.96 73.0728 165.919 73.0728Z" fill="#DDD7EC"/>
<path d="M173.663 81.011H168.476C168.36 81.011 168.27 80.9203 168.27 80.8048C168.27 80.6893 168.36 80.5986 168.476 80.5986H173.663C173.779 80.5986 173.87 80.6893 173.87 80.8048C173.87 80.9203 173.775 81.011 173.663 81.011Z" fill="#231F20"/>
<path d="M167.449 81.011H167.069C166.954 81.011 166.863 80.9203 166.863 80.8048C166.863 80.6893 166.954 80.5986 167.069 80.5986H167.449C167.564 80.5986 167.655 80.6893 167.655 80.8048C167.655 80.9203 167.56 81.011 167.449 81.011Z" fill="#231F20"/>
<path d="M175.074 81.011H174.694C174.579 81.011 174.488 80.9203 174.488 80.8048C174.488 80.6893 174.579 80.5986 174.694 80.5986H175.074C175.189 80.5986 175.28 80.6893 175.28 80.8048C175.28 80.9203 175.185 81.011 175.074 81.011Z" fill="#231F20"/>
<path d="M161.492 75.7821H160.968C160.852 75.7821 160.762 75.6914 160.762 75.5759C160.762 75.4605 160.852 75.3698 160.968 75.3698H161.492C161.607 75.3698 161.698 75.4605 161.698 75.5759C161.698 75.6914 161.603 75.7821 161.492 75.7821Z" fill="#C9C9C9"/>
<path d="M179.635 75.7821H176.501C176.386 75.7821 176.295 75.6914 176.295 75.5759C176.295 75.4605 176.386 75.3698 176.501 75.3698H179.635C179.751 75.3698 179.841 75.4605 179.841 75.5759C179.841 75.6914 179.746 75.7821 179.635 75.7821Z" fill="#C9C9C9"/>
<path d="M174.497 69.8934C174.646 70.0088 174.568 70.248 174.378 70.248H171.071H167.763C167.574 70.248 167.491 70.0088 167.644 69.8934L170.592 67.6377C170.873 67.4233 171.264 67.4233 171.545 67.6377L174.497 69.8934Z" fill="#0070A3"/>
<path d="M174.378 70.4542H167.764C167.587 70.4542 167.438 70.347 167.38 70.1779C167.323 70.0089 167.376 69.8357 167.516 69.7284L170.465 67.4728C170.82 67.2006 171.314 67.2006 171.669 67.4728L174.617 69.7284C174.758 69.8357 174.811 70.013 174.754 70.1779C174.704 70.347 174.551 70.4542 174.378 70.4542ZM167.789 70.0419H174.349L171.417 67.7985C171.211 67.6418 170.923 67.6418 170.716 67.7985L167.789 70.0419Z" fill="#231F20"/>
<path d="M169.615 69.6295C169.553 69.6295 169.491 69.6006 169.45 69.547C169.38 69.4563 169.396 69.3284 169.487 69.2583L170.373 68.582C170.464 68.5119 170.592 68.5284 170.662 68.6191C170.732 68.7099 170.716 68.8377 170.625 68.9078L169.738 69.5841C169.705 69.6171 169.66 69.6295 169.615 69.6295ZM171.021 68.5573C170.959 68.5573 170.897 68.5284 170.856 68.4748C170.786 68.3841 170.802 68.2563 170.893 68.1862L170.942 68.149C171.033 68.0789 171.161 68.0954 171.231 68.1862C171.301 68.2769 171.285 68.4047 171.194 68.4748L171.145 68.5119C171.107 68.5408 171.062 68.5573 171.021 68.5573Z" fill="#C0E7F9"/>
<path d="M172.678 71.5388H171.874C171.763 71.5388 171.672 71.6295 171.672 71.7408V72.545C171.672 72.6563 171.763 72.747 171.874 72.747H172.678C172.789 72.747 172.88 72.6563 172.88 72.545V71.7408C172.876 71.6254 172.789 71.5388 172.678 71.5388Z" fill="#009FE7"/>
<path d="M172.679 72.9491H171.875C171.652 72.9491 171.467 72.7677 171.467 72.5409V71.7367C171.467 71.5141 171.648 71.3285 171.875 71.3285H172.679C172.902 71.3285 173.087 71.5099 173.087 71.7367V72.5409C173.083 72.7677 172.902 72.9491 172.679 72.9491ZM171.879 72.5367H172.671V71.745H171.879V72.5367Z" fill="#231F20"/>
<path d="M169.265 74.2563C169.149 74.2563 169.059 74.1656 169.059 74.0502V70.9367C169.059 70.8213 169.149 70.7306 169.265 70.7306C169.38 70.7306 169.471 70.8213 169.471 70.9367V74.0502C169.471 74.1656 169.376 74.2563 169.265 74.2563Z" fill="#F9F9F9"/>
<path d="M171.069 74.578C168.079 74.578 165.646 72.145 165.646 69.1553C165.646 66.1656 168.079 63.7326 171.069 63.7326C174.059 63.7326 176.492 66.1656 176.492 69.1553C176.492 72.145 174.059 74.578 171.069 74.578ZM171.069 64.1449C168.306 64.1449 166.059 66.3924 166.059 69.1553C166.059 71.9182 168.306 74.1656 171.069 74.1656C173.832 74.1656 176.08 71.9182 176.08 69.1553C176.08 66.3924 173.832 64.1449 171.069 64.1449Z" fill="#231F20"/>
<path d="M170.266 71.5388H169.462C169.35 71.5388 169.26 71.6295 169.26 71.7408V72.545C169.26 72.6563 169.35 72.747 169.462 72.747H170.266C170.377 72.747 170.468 72.6563 170.468 72.545V71.7408C170.468 71.6254 170.377 71.5388 170.266 71.5388Z" fill="#009FE7"/>
<path d="M170.265 72.9491H169.461C169.238 72.9491 169.053 72.7677 169.053 72.5409V71.7367C169.053 71.5141 169.234 71.3285 169.461 71.3285H170.265C170.488 71.3285 170.673 71.5099 170.673 71.7367V72.5409C170.673 72.7677 170.492 72.9491 170.265 72.9491ZM169.469 72.5367H170.261V71.745H169.469V72.5367Z" fill="#231F20"/>
<path d="M162.253 61.6613C162.164 62.7131 161.068 62.8792 161.068 62.8792C162.01 62.9235 162.244 64.1581 162.244 64.1581C162.264 63.2778 163.456 62.8662 163.456 62.8662C162.563 62.8128 162.253 61.6613 162.253 61.6613Z" fill="#EEB51B"/>
<path d="M163.464 62.73C162.681 62.6831 162.387 61.6362 162.385 61.6256C162.367 61.5617 162.307 61.5197 162.241 61.5253C162.175 61.5313 162.122 61.5837 162.117 61.6497C162.039 62.5789 161.088 62.738 161.048 62.7442C160.978 62.7547 160.928 62.8161 160.932 62.8862C160.935 62.9563 160.992 63.0121 161.062 63.0155C161.883 63.0542 162.108 64.1724 162.11 64.1837C162.122 64.2483 162.179 64.2944 162.244 64.2944C162.248 64.2944 162.251 64.2943 162.255 64.2939C162.325 64.2881 162.379 64.2309 162.38 64.1611C162.398 63.3871 163.489 62.9989 163.5 62.995C163.562 62.9737 163.6 62.9119 163.591 62.8474C163.582 62.7831 163.529 62.734 163.464 62.73ZM162.23 63.6711C162.106 63.3864 161.892 63.0428 161.54 62.8637C161.806 62.7359 162.123 62.5077 162.286 62.1111C162.427 62.3905 162.668 62.737 163.044 62.9046C162.77 63.0537 162.414 63.3052 162.23 63.6711Z" fill="#3A312A"/>
<path d="M160.279 63.2059C160.217 63.9499 159.441 64.0674 159.441 64.0674C160.107 64.0987 160.273 64.972 160.273 64.972C160.287 64.3494 161.13 64.0582 161.13 64.0582C160.499 64.0204 160.279 63.2059 160.279 63.2059Z" fill="#EEB51B"/>
<path d="M161.138 63.9219C160.613 63.8906 160.413 63.1774 160.411 63.1702C160.393 63.1064 160.332 63.0649 160.267 63.07C160.201 63.0759 160.149 63.1285 160.143 63.1944C160.09 63.8194 159.448 63.9282 159.421 63.9325C159.351 63.943 159.301 64.0044 159.305 64.0744C159.309 64.1444 159.365 64.2003 159.435 64.2037C159.984 64.2295 160.137 64.99 160.139 64.9974C160.151 65.0622 160.208 65.1084 160.273 65.1084C160.276 65.1084 160.28 65.1083 160.284 65.1079C160.354 65.1022 160.408 65.0448 160.409 64.975C160.421 64.4557 161.167 64.1897 161.174 64.1871C161.236 64.1658 161.274 64.1041 161.265 64.0396C161.256 63.9751 161.203 63.9258 161.138 63.9219ZM160.266 64.5401C160.182 64.3685 160.053 64.181 159.861 64.0598C160.03 63.9651 160.198 63.8206 160.304 63.6126C160.401 63.783 160.546 63.9723 160.754 64.0877C160.586 64.1878 160.391 64.3369 160.266 64.5401Z" fill="#3A312A"/>
<path d="M160.279 60.7809C160.217 61.5249 159.441 61.6425 159.441 61.6425C160.107 61.6738 160.273 62.547 160.273 62.547C160.287 61.9244 161.13 61.6333 161.13 61.6333C160.499 61.5954 160.279 60.7809 160.279 60.7809Z" fill="#EEB51B"/>
<path d="M161.138 61.497C160.613 61.4656 160.413 60.7525 160.411 60.7452C160.393 60.6813 160.332 60.6392 160.267 60.6449C160.201 60.6509 160.149 60.7034 160.143 60.7694C160.09 61.3944 159.448 61.5032 159.421 61.5075C159.351 61.5179 159.301 61.5793 159.305 61.6495C159.309 61.7195 159.365 61.7753 159.435 61.7787C159.984 61.8045 160.137 62.565 160.139 62.5725C160.151 62.6372 160.208 62.6834 160.273 62.6834C160.276 62.6834 160.28 62.6833 160.284 62.683C160.354 62.6773 160.408 62.6199 160.409 62.5501C160.421 62.0308 161.167 61.7647 161.174 61.7622C161.236 61.7409 161.274 61.6791 161.265 61.6146C161.256 61.5502 161.203 61.5009 161.138 61.497ZM160.266 62.1151C160.182 61.9436 160.053 61.7561 159.861 61.6349C160.03 61.5402 160.198 61.3957 160.304 61.1877C160.401 61.3581 160.546 61.5474 160.754 61.6628C160.586 61.763 160.391 61.9121 160.266 62.1151Z" fill="#3A312A"/>
</g>
<g clip-path="url(#clip3_3803_24087)">
<path d="M94.0485 129.097H71.599C71.5152 129.097 71.4473 129.165 71.4473 129.249C71.4473 129.333 71.5152 129.401 71.599 129.401H94.0485C94.1322 129.401 94.2002 129.333 94.2002 129.249C94.2002 129.165 94.1322 129.097 94.0485 129.097Z" fill="#3A312A"/>
<path d="M90.9391 107.853C89.7917 107.853 88.8613 108.784 88.8613 109.931C88.8613 111.079 89.7916 112.009 90.9391 112.009C92.0867 112.009 93.0169 111.079 93.0169 109.931C93.0169 108.784 92.0867 107.853 90.9391 107.853Z" fill="#EEB51B"/>
<path d="M90.9385 107.702C89.7092 107.702 88.709 108.702 88.709 109.931C88.709 111.161 89.7092 112.161 90.9385 112.161C92.1677 112.161 93.1679 111.161 93.1679 109.931C93.1679 108.702 92.1677 107.702 90.9385 107.702ZM90.9385 111.857C89.8764 111.857 89.0124 110.993 89.0124 109.931C89.0124 108.869 89.8764 108.005 90.9385 108.005C92.0006 108.005 92.8646 108.869 92.8646 109.931C92.8646 110.993 92.0006 111.857 90.9385 111.857Z" fill="#3A312A"/>
<path d="M90.9383 106.696C90.8569 106.696 90.791 106.762 90.791 106.843V107.142C90.791 107.224 90.8569 107.29 90.9383 107.29C91.0196 107.29 91.0855 107.224 91.0855 107.142V106.843C91.0855 106.762 91.0197 106.696 90.9383 106.696Z" fill="#3A312A"/>
<path d="M90.9383 112.573C90.8569 112.573 90.791 112.639 90.791 112.72V113.019C90.791 113.1 90.8569 113.166 90.9383 113.166C91.0196 113.166 91.0855 113.1 91.0855 113.019V112.72C91.0855 112.639 91.0197 112.573 90.9383 112.573Z" fill="#3A312A"/>
<path d="M93.2266 107.643C93.1691 107.586 93.0759 107.586 93.0184 107.643L92.8068 107.855C92.7493 107.913 92.7493 108.006 92.8068 108.063C92.8644 108.121 92.9576 108.121 93.015 108.063L93.2266 107.852C93.284 107.794 93.284 107.701 93.2266 107.643Z" fill="#3A312A"/>
<path d="M89.0703 111.799C89.0129 111.742 88.9197 111.742 88.8621 111.799L88.6506 112.011C88.593 112.068 88.593 112.161 88.6506 112.219C88.7081 112.276 88.8014 112.276 88.8588 112.219L89.0703 112.007C89.1279 111.95 89.1279 111.857 89.0703 111.799Z" fill="#3A312A"/>
<path d="M94.0264 109.784H93.7273C93.646 109.784 93.5801 109.85 93.5801 109.931C93.5801 110.013 93.646 110.078 93.7273 110.078H94.0264C94.1077 110.078 94.1737 110.013 94.1737 109.931C94.1737 109.85 94.1077 109.784 94.0264 109.784Z" fill="#3A312A"/>
<path d="M88.1495 109.784H87.8504C87.7691 109.784 87.7031 109.85 87.7031 109.931C87.7031 110.013 87.7691 110.078 87.8504 110.078H88.1495C88.2308 110.078 88.2967 110.013 88.2967 109.931C88.2967 109.85 88.2308 109.784 88.1495 109.784Z" fill="#3A312A"/>
<path d="M93.2266 112.011L93.015 111.799C92.9575 111.741 92.8644 111.741 92.8068 111.799C92.7493 111.856 92.7493 111.95 92.8068 112.007L93.0184 112.219C93.0759 112.276 93.1692 112.276 93.2266 112.219C93.284 112.161 93.284 112.068 93.2266 112.011Z" fill="#3A312A"/>
<path d="M89.0703 107.855L88.8588 107.643C88.8013 107.586 88.708 107.586 88.6506 107.643C88.593 107.701 88.593 107.794 88.6506 107.852L88.8621 108.063C88.9197 108.121 89.0129 108.121 89.0703 108.063C89.1279 108.006 89.1279 107.913 89.0703 107.855Z" fill="#3A312A"/>
<path d="M92.0797 108.38C92.3163 108.7 92.4558 109.095 92.4558 109.523C92.4558 110.585 91.5912 111.449 90.5294 111.449C90.1017 111.449 89.7073 111.308 89.3867 111.071C89.7376 111.548 90.3019 111.857 90.938 111.857C91.9998 111.857 92.8644 110.994 92.8644 109.931C92.8644 109.296 92.5549 108.731 92.0797 108.38Z" fill="white"/>
<path d="M75.916 111.426C75.6949 111.426 75.5156 111.605 75.5156 111.826V114.899C75.5161 114.899 75.5167 114.899 75.5173 114.899V116.388C75.5167 116.388 75.5162 116.388 75.5156 116.388V129.249H80.7234V111.426H75.916Z" fill="#F2E6EA"/>
<path d="M80.7248 111.274H75.9173C75.6129 111.274 75.3652 111.522 75.3652 111.826V114.899C75.3652 114.986 75.4334 115.056 75.5263 115.051C75.6065 115.046 75.6703 114.98 75.6703 114.899C75.6703 114.891 75.6697 114.884 75.6686 114.876V111.826C75.6686 111.689 75.7802 111.577 75.9173 111.577H80.5731V129.097H75.6686V116.41C75.6697 116.403 75.6703 116.395 75.6703 116.388C75.6703 116.307 75.6066 116.24 75.5264 116.236C75.4359 116.232 75.3652 116.301 75.3652 116.388V129.249C75.3652 129.333 75.4332 129.401 75.5169 129.401H80.7248C80.8085 129.401 80.8765 129.333 80.8765 129.249V111.426C80.8765 111.342 80.8085 111.274 80.7248 111.274Z" fill="#3A312A"/>
<path d="M86.1594 112.913L83.1261 109.484L82.1398 108.369L81.4248 107.561C81.1806 107.285 80.7246 107.458 80.7246 107.826V129.249H86.2599V113.178C86.2599 113.081 86.2241 112.986 86.1594 112.913Z" fill="#EB3040"/>
<path d="M86.2722 112.813L83.2388 109.384C83.1835 109.321 83.0874 109.315 83.0247 109.371C82.962 109.426 82.9561 109.522 83.0117 109.585L86.045 113.014C86.0852 113.059 86.1074 113.118 86.1074 113.178V129.097H80.8755V107.826C80.8755 107.7 80.9585 107.623 81.0361 107.594C81.1137 107.564 81.2264 107.567 81.3105 107.662L82.0255 108.47C82.0809 108.533 82.1766 108.539 82.2396 108.483C82.3023 108.428 82.3083 108.332 82.2526 108.269L81.5376 107.461C81.3844 107.287 81.1453 107.228 80.9286 107.31C80.7121 107.392 80.5723 107.595 80.5723 107.826V129.249C80.5723 129.333 80.6402 129.401 80.724 129.401H86.2592C86.3429 129.401 86.4109 129.333 86.4109 129.249V113.178C86.4108 113.044 86.3616 112.914 86.2722 112.813Z" fill="#3A312A"/>
<path d="M79.7494 113.105H76.4629V114.352H79.7494V113.105Z" fill="#555555"/>
<path d="M79.7507 112.953H76.4642C76.3805 112.953 76.3125 113.021 76.3125 113.105V114.352C76.3125 114.436 76.3805 114.504 76.4642 114.504H79.7507C79.8345 114.504 79.9024 114.436 79.9024 114.352V113.105C79.9024 113.021 79.8346 112.953 79.7507 112.953ZM79.599 114.2H76.6159V113.256H79.599V114.2Z" fill="#3A312A"/>
<path d="M82.8635 110.745H81.9492V127.245H82.8635V110.745Z" fill="white"/>
<path d="M82.8628 110.594H81.9486C81.8648 110.594 81.7969 110.661 81.7969 110.745V127.245C81.7969 127.329 81.8648 127.397 81.9486 127.397H82.8628C82.9466 127.397 83.0145 127.329 83.0145 127.245V110.745C83.0145 110.661 82.9467 110.594 82.8628 110.594ZM82.7111 127.094H82.1002V110.897H82.7111V127.094Z" fill="#3A312A"/>
<path d="M85.051 113.818H84.1367V127.245H85.051V113.818Z" fill="white"/>
<path d="M85.0503 113.667H84.1361C84.0523 113.667 83.9844 113.735 83.9844 113.818V127.245C83.9844 127.329 84.0523 127.397 84.1361 127.397H85.0503C85.1341 127.397 85.202 127.329 85.202 127.245V113.818C85.202 113.735 85.1342 113.667 85.0503 113.667ZM84.8986 127.094H84.2877V113.97H84.8986V127.094Z" fill="#3A312A"/>
<path d="M79.7494 115.683H76.4629V116.931H79.7494V115.683Z" fill="#555555"/>
<path d="M79.7507 115.532H76.4642C76.3805 115.532 76.3125 115.6 76.3125 115.683V116.931C76.3125 117.014 76.3805 117.082 76.4642 117.082H79.7507C79.8345 117.082 79.9024 117.014 79.9024 116.931V115.683C79.9024 115.6 79.8346 115.532 79.7507 115.532ZM79.599 116.779H76.6159V115.835H79.599V116.779Z" fill="#3A312A"/>
<path d="M79.7494 118.262H76.4629V119.509H79.7494V118.262Z" fill="#555555"/>
<path d="M79.7507 118.11H76.4642C76.3805 118.11 76.3125 118.178 76.3125 118.262V119.509C76.3125 119.593 76.3805 119.661 76.4642 119.661H79.7507C79.8345 119.661 79.9024 119.593 79.9024 119.509V118.262C79.9024 118.178 79.8346 118.11 79.7507 118.11ZM79.599 119.358H76.6159V118.414H79.599V119.358Z" fill="#3A312A"/>
<path d="M79.7494 120.841H76.4629V122.088H79.7494V120.841Z" fill="#555555"/>
<path d="M79.7507 120.689H76.4642C76.3805 120.689 76.3125 120.757 76.3125 120.841V122.088C76.3125 122.172 76.3805 122.24 76.4642 122.24H79.7507C79.8345 122.24 79.9024 122.172 79.9024 122.088V120.841C79.9024 120.757 79.8346 120.689 79.7507 120.689ZM79.599 121.936H76.6159V120.992H79.599V121.936Z" fill="#3A312A"/>
<path d="M79.7494 123.419H76.4629V124.667H79.7494V123.419Z" fill="#555555"/>
<path d="M79.7507 123.268H76.4642C76.3805 123.268 76.3125 123.336 76.3125 123.419V124.667C76.3125 124.75 76.3805 124.818 76.4642 124.818H79.7507C79.8345 124.818 79.9024 124.75 79.9024 124.667V123.419C79.9024 123.336 79.8346 123.268 79.7507 123.268ZM79.599 124.515H76.6159V123.571H79.599V124.515Z" fill="#3A312A"/>
<path d="M79.7494 125.998H76.4629V127.245H79.7494V125.998Z" fill="#555555"/>
<path d="M79.7507 125.846H76.4642C76.3805 125.846 76.3125 125.914 76.3125 125.998V127.245C76.3125 127.329 76.3805 127.397 76.4642 127.397H79.7507C79.8345 127.397 79.9024 127.329 79.9024 127.245V125.998C79.9024 125.914 79.8346 125.846 79.7507 125.846ZM79.599 127.094H76.6159V126.15H79.599V127.094Z" fill="#3A312A"/>
<path d="M89.8452 117.308H86.2617V129.249H90.2456V117.708C90.2456 117.487 90.0664 117.308 89.8452 117.308Z" fill="#54B2A2"/>
<path d="M89.8447 117.156H86.2611C86.1773 117.156 86.1094 117.224 86.1094 117.308V129.249C86.1094 129.333 86.1773 129.401 86.2611 129.401H90.2449C90.3287 129.401 90.3966 129.333 90.3966 129.249V117.708C90.3966 117.404 90.149 117.156 89.8447 117.156ZM90.0933 129.097H86.4127V117.459H89.8447C89.9817 117.459 90.0934 117.571 90.0934 117.708V129.097H90.0933Z" fill="#3A312A"/>
<path d="M89.2055 119.139H87.3027V120.285H89.2055V119.139Z" fill="#555555"/>
<path d="M89.2048 118.987H87.3021C87.2183 118.987 87.1504 119.055 87.1504 119.139V120.285C87.1504 120.368 87.2183 120.436 87.3021 120.436H89.2048C89.2886 120.436 89.3565 120.368 89.3565 120.285V119.139C89.3565 119.055 89.2887 118.987 89.2048 118.987ZM89.0531 120.133H87.4538V119.29H89.0531V120.133Z" fill="#3A312A"/>
<path d="M89.2055 121.464H87.3027V122.61H89.2055V121.464Z" fill="#555555"/>
<path d="M89.2048 121.313H87.3021C87.2183 121.313 87.1504 121.381 87.1504 121.464V122.61C87.1504 122.694 87.2183 122.762 87.3021 122.762H89.2048C89.2886 122.762 89.3565 122.694 89.3565 122.61V121.464C89.3565 121.381 89.2887 121.313 89.2048 121.313ZM89.0531 122.459H87.4538V121.616H89.0531V122.459Z" fill="#3A312A"/>
<path d="M89.2055 123.79H87.3027V124.936H89.2055V123.79Z" fill="#555555"/>
<path d="M89.2048 123.639H87.3021C87.2183 123.639 87.1504 123.707 87.1504 123.79V124.936C87.1504 125.02 87.2183 125.088 87.3021 125.088H89.2048C89.2886 125.088 89.3565 125.02 89.3565 124.936V123.79C89.3565 123.707 89.2887 123.639 89.2048 123.639ZM89.0531 124.785H87.4538V123.942H89.0531V124.785Z" fill="#3A312A"/>
<path d="M89.2055 126.116H87.3027V127.262H89.2055V126.116Z" fill="#555555"/>
<path d="M89.2048 125.964H87.3021C87.2183 125.964 87.1504 126.032 87.1504 126.116V127.262C87.1504 127.346 87.2183 127.414 87.3021 127.414H89.2048C89.2886 127.414 89.3565 127.346 89.3565 127.262V126.116C89.3565 126.032 89.2887 125.964 89.2048 125.964ZM89.0531 127.11H87.4538V126.268H89.0531V127.11Z" fill="#3A312A"/>
<path d="M91.6264 126.712C91.5061 126.712 91.3868 126.7 91.2715 126.675V129.249H91.9824V126.675C91.8661 126.7 91.7478 126.712 91.6264 126.712Z" fill="#555555"/>
<path d="M92.0775 126.558C92.0419 126.529 91.9953 126.518 91.9508 126.527C91.7393 126.571 91.5106 126.571 91.3022 126.527C91.2577 126.518 91.2108 126.529 91.1753 126.558C91.1398 126.586 91.1191 126.63 91.1191 126.675V129.249C91.1191 129.333 91.1871 129.401 91.2708 129.401H91.9817C92.0655 129.401 92.1334 129.333 92.1334 129.249V126.675C92.1334 126.63 92.1129 126.587 92.0775 126.558ZM91.83 129.097H91.4225V126.853C91.5568 126.867 91.6951 126.867 91.83 126.853V129.097Z" fill="#3A312A"/>
<path d="M93.1765 119.904L92.9623 119.402C92.6577 118.705 92.3455 118.056 92.0998 117.563C91.884 117.13 91.3713 117.13 91.1555 117.563C90.991 117.893 90.7967 118.294 90.5949 118.731L90.2827 119.426C89.6982 120.766 89.1445 122.277 89.1445 123.194C89.1445 125.137 90.2563 126.712 91.6277 126.712C92.9992 126.712 94.1109 125.137 94.1109 123.194C94.1108 122.385 93.6795 121.113 93.1765 119.904Z" fill="#009FE7"/>
<path d="M93.3156 119.845L93.1007 119.341C92.8441 118.754 92.5529 118.133 92.235 117.495C92.1074 117.239 91.8802 117.087 91.6272 117.087C91.3741 117.087 91.1467 117.239 91.0191 117.495C90.8233 117.888 90.634 118.282 90.456 118.669L90.1437 119.364C90.1435 119.364 90.1432 119.365 90.143 119.365C89.3794 121.116 88.9922 122.404 88.9922 123.194C88.9922 125.218 90.1741 126.863 91.6271 126.863C93.08 126.863 94.262 125.218 94.262 123.194C94.262 122.481 93.9438 121.354 93.3156 119.845ZM91.6272 126.56C90.3416 126.56 89.2957 125.05 89.2957 123.195C89.2957 122.457 89.6848 121.175 90.4208 119.487L90.7321 118.795C90.9084 118.412 91.0964 118.021 91.2907 117.631C91.3659 117.48 91.4916 117.39 91.6272 117.39C91.7627 117.39 91.8884 117.48 91.9634 117.631C92.279 118.264 92.568 118.88 92.8221 119.462L93.0359 119.962C93.6481 121.433 93.9585 122.521 93.9585 123.194C93.9586 125.05 92.9128 126.56 91.6272 126.56Z" fill="#3A312A"/>
<path d="M74.0981 126.712C73.9778 126.712 73.8585 126.7 73.7422 126.675V129.249H74.4541V126.675C74.3378 126.7 74.2195 126.712 74.0981 126.712Z" fill="#555555"/>
<path d="M74.5512 126.558C74.5156 126.529 74.4689 126.518 74.4245 126.527C74.2132 126.571 73.9856 126.571 73.7745 126.527C73.7301 126.518 73.6834 126.529 73.6478 126.558C73.6123 126.587 73.5918 126.63 73.5918 126.675V129.249C73.5918 129.333 73.6598 129.401 73.7435 129.401H74.4554C74.5391 129.401 74.6071 129.333 74.6071 129.249V126.675C74.6072 126.63 74.5867 126.587 74.5512 126.558ZM74.3038 129.097H73.8953V126.853C74.0304 126.867 74.1687 126.867 74.3038 126.853V129.097Z" fill="#3A312A"/>
<path d="M75.6474 119.904L75.4331 119.402C75.1285 118.705 74.8163 118.056 74.5706 117.563C74.3548 117.13 73.8421 117.13 73.6263 117.563C73.4619 117.893 73.2675 118.294 73.0657 118.731L72.7535 119.426C72.169 120.766 71.6152 122.277 71.6152 123.194C71.6152 125.137 72.727 126.712 74.0984 126.712C75.4699 126.712 76.5816 125.137 76.5816 123.194C76.5816 122.385 76.1504 121.113 75.6474 119.904Z" fill="#009FE7"/>
<path d="M75.7863 119.845L75.5715 119.341C75.3138 118.752 75.0225 118.131 74.7057 117.495C74.5781 117.239 74.3509 117.087 74.0979 117.087C73.8448 117.087 73.6174 117.239 73.4898 117.495C73.2938 117.889 73.1044 118.283 72.9267 118.669L72.6145 119.364C72.6143 119.364 72.614 119.365 72.6138 119.365C71.8501 121.116 71.4629 122.404 71.4629 123.194C71.4629 125.218 72.6448 126.863 74.0979 126.863C75.5507 126.863 76.7328 125.218 76.7328 123.194C76.7328 122.481 76.4145 121.354 75.7863 119.845ZM74.098 126.56C72.8123 126.56 71.7664 125.05 71.7664 123.195C71.7664 122.457 72.1555 121.175 72.8917 119.487L73.2028 118.795C73.3788 118.413 73.5668 118.022 73.7614 117.631C73.8366 117.48 73.9623 117.39 74.0979 117.39C74.2334 117.39 74.3591 117.48 74.4341 117.631C74.7486 118.262 75.0378 118.878 75.2929 119.462L75.5066 119.962C76.1189 121.433 76.4293 122.521 76.4293 123.194C76.4294 125.05 75.3836 126.56 74.098 126.56Z" fill="#3A312A"/>
<path d="M93.0363 119.963L92.8219 119.461C92.5681 118.88 92.2789 118.264 91.9634 117.631C91.8886 117.48 91.7622 117.39 91.6267 117.39C91.4911 117.39 91.3658 117.48 91.2909 117.631C91.2535 117.706 91.2161 117.781 91.1797 117.856C91.4517 118.411 91.7025 118.948 91.927 119.461L92.1404 119.963C92.7532 121.433 93.0636 122.521 93.0636 123.195C93.0636 124.829 92.2516 126.195 91.1797 126.497C91.3243 126.539 91.474 126.56 91.6267 126.56C92.913 126.56 93.9586 125.05 93.9586 123.195C93.9586 122.521 93.6481 121.433 93.0363 119.963Z" fill="#0071A5"/>
<path d="M75.507 119.963L75.2937 119.461C75.0398 118.881 74.7506 118.264 74.4351 117.631C74.3593 117.48 74.2339 117.39 74.0984 117.39C73.9629 117.39 73.8375 117.48 73.7616 117.631C73.7242 117.706 73.6878 117.781 73.6504 117.855C73.9224 118.409 74.1742 118.949 74.3977 119.461L74.6121 119.963C75.2239 121.433 75.5343 122.521 75.5343 123.195C75.5343 124.83 74.7223 126.196 73.6504 126.497C73.795 126.539 73.9447 126.56 74.0984 126.56C75.3837 126.56 76.4303 125.05 76.4303 123.195C76.4303 122.521 76.1198 121.433 75.507 119.963Z" fill="#0071A5"/>
</g>
<path d="M126.906 62.2261V66.6211L129.895 66.1022V62.2261H126.906Z" fill="#EB3040"/>
<path d="M129.895 62.0986H126.907C126.836 62.0986 126.779 62.1556 126.779 62.226V62.9602C126.779 63.0306 126.836 63.0876 126.907 63.0876C126.977 63.0876 127.034 63.0306 127.034 62.9602V62.3534H129.768V65.9949L127.034 66.4696V64.167C127.034 64.0966 126.977 64.0396 126.907 64.0396C126.836 64.0396 126.779 64.0966 126.779 64.167V66.621C126.779 66.6586 126.796 66.6943 126.825 66.7185C126.848 66.738 126.877 66.7484 126.907 66.7484C126.914 66.7484 126.921 66.7478 126.929 66.7465L129.917 66.2276C129.978 66.217 130.023 66.164 130.023 66.1021V62.226C130.023 62.1557 129.966 62.0986 129.895 62.0986Z" fill="#3A312A"/>
<path d="M130.17 61.0322H126.631C126.467 61.0322 126.334 61.1654 126.334 61.3296V61.9287C126.334 62.093 126.467 62.2261 126.631 62.2261H130.17C130.334 62.2261 130.467 62.0929 130.467 61.9287V61.3296C130.467 61.1653 130.334 61.0322 130.17 61.0322Z" fill="#EB3040"/>
<path d="M130.17 60.9048H126.632C126.398 60.9048 126.207 61.0954 126.207 61.3296V61.9287C126.207 62.1629 126.398 62.3535 126.632 62.3535H130.17C130.404 62.3535 130.595 62.1629 130.595 61.9287V61.3296C130.595 61.0953 130.404 60.9048 130.17 60.9048ZM130.34 61.9287C130.34 62.0224 130.264 62.0987 130.17 62.0987H126.632C126.538 62.0987 126.462 62.0225 126.462 61.9287V61.3296C126.462 61.2358 126.538 61.1596 126.632 61.1596H130.17C130.264 61.1596 130.34 61.2358 130.34 61.3296V61.9287Z" fill="#3A312A"/>
<path d="M133.102 62.2261V65.5451L136.091 65.0262V62.2261H133.102Z" fill="#EB3040"/>
<path d="M136.091 62.0986H133.102C133.032 62.0986 132.975 62.1556 132.975 62.226V65.545C132.975 65.5826 132.991 65.6183 133.02 65.6425C133.043 65.6619 133.072 65.6724 133.102 65.6724C133.109 65.6724 133.117 65.6718 133.124 65.6705L136.113 65.1516C136.174 65.141 136.219 65.088 136.219 65.0261V62.226C136.219 62.1557 136.162 62.0986 136.091 62.0986ZM135.964 64.9189L133.229 65.3936V62.3534H135.964V64.9189Z" fill="#3A312A"/>
<path d="M136.365 61.0322H132.827C132.662 61.0322 132.529 61.1654 132.529 61.3296V61.9287C132.529 62.093 132.662 62.2261 132.827 62.2261H136.365C136.529 62.2261 136.662 62.0929 136.662 61.9287V61.3296C136.662 61.1653 136.529 61.0322 136.365 61.0322Z" fill="#EB3040"/>
<path d="M136.366 60.9048H132.827C132.593 60.9048 132.402 61.0954 132.402 61.3296V61.9287C132.402 62.1629 132.593 62.3535 132.827 62.3535H136.366C136.6 62.3535 136.79 62.1629 136.79 61.9287V61.3296C136.79 61.0953 136.6 60.9048 136.366 60.9048ZM136.536 61.9287C136.536 62.0224 136.459 62.0987 136.366 62.0987H132.827C132.733 62.0987 132.657 62.0225 132.657 61.9287V61.3296C132.657 61.2358 132.733 61.1596 132.827 61.1596H136.366C136.459 61.1596 136.536 61.2358 136.536 61.3296V61.9287Z" fill="#3A312A"/>
<path d="M139.297 62.2261V64.4691L142.285 63.9501V62.2261H139.297Z" fill="#EB3040"/>
<path d="M142.286 62.0986H139.297C139.227 62.0986 139.17 62.1556 139.17 62.226V64.4689C139.17 64.5066 139.186 64.5422 139.215 64.5664C139.238 64.5859 139.268 64.5963 139.297 64.5963C139.305 64.5963 139.312 64.5957 139.319 64.5945L142.308 64.0756C142.369 64.0649 142.413 64.012 142.413 63.95V62.226C142.413 62.1557 142.356 62.0986 142.286 62.0986ZM142.159 63.8429L139.425 64.3176V62.3534H142.159V63.8429Z" fill="#3A312A"/>
<path d="M142.56 61.0322H139.022C138.858 61.0322 138.725 61.1654 138.725 61.3296V61.9287C138.725 62.093 138.858 62.2261 139.022 62.2261H142.56C142.725 62.2261 142.858 62.0929 142.858 61.9287V61.3296C142.858 61.1653 142.725 61.0322 142.56 61.0322Z" fill="#EB3040"/>
<path d="M142.561 60.9048H139.022C138.788 60.9048 138.598 61.0954 138.598 61.3296V61.9287C138.598 62.1629 138.788 62.3535 139.022 62.3535H142.561C142.795 62.3535 142.986 62.1629 142.986 61.9287V61.3296C142.986 61.0953 142.795 60.9048 142.561 60.9048ZM142.731 61.9287C142.731 62.0224 142.654 62.0987 142.561 62.0987H139.022C138.929 62.0987 138.852 62.0225 138.852 61.9287V61.3296C138.852 61.2358 138.929 61.1596 139.022 61.1596H142.561C142.654 61.1596 142.731 61.2358 142.731 61.3296V61.9287Z" fill="#3A312A"/>
<path d="M143.449 63.7475L132.515 65.647L131.366 65.8466L125.563 66.8547C125.313 66.8981 125.131 67.1148 125.131 67.3683V73.4622C125.131 73.7501 125.364 73.9835 125.652 73.9835H143.538C143.826 73.9835 144.06 73.7501 144.06 73.4622V64.2611C144.06 63.9375 143.768 63.6921 143.449 63.7475Z" fill="#009FE7"/>
<path d="M143.957 63.7648C143.81 63.6413 143.617 63.5895 143.428 63.622L132.493 65.5215C132.424 65.5335 132.378 65.5995 132.39 65.6688C132.402 65.7381 132.468 65.7849 132.537 65.7725L143.472 63.873C143.587 63.8531 143.704 63.8847 143.793 63.9597C143.882 64.0347 143.933 64.1446 143.933 64.2612V73.4622C143.933 73.6793 143.756 73.8561 143.539 73.8561H125.653C125.435 73.8561 125.259 73.6793 125.259 73.4622V67.3682C125.259 67.1762 125.396 67.013 125.585 66.9802L131.388 65.9722C131.457 65.9601 131.504 65.8942 131.492 65.8249C131.479 65.7556 131.413 65.709 131.344 65.7212L125.542 66.7292C125.23 66.7833 125.004 67.0521 125.004 67.3682V73.4622C125.004 73.8198 125.295 74.1109 125.653 74.1109H143.539C143.896 74.1109 144.187 73.8199 144.187 73.4622V64.2611C144.188 64.0692 144.103 63.8882 143.957 63.7648Z" fill="#3A312A"/>
<path d="M128.34 69.9985H126.862C126.57 69.9985 126.334 70.2347 126.334 70.5262V72.0045C126.334 72.2959 126.57 72.5322 126.862 72.5322H128.34C128.631 72.5322 128.868 72.2959 128.868 72.0045V70.5262C128.868 70.2347 128.631 69.9985 128.34 69.9985Z" fill="#DDD7EC"/>
<path d="M128.34 69.8711H126.862C126.501 69.8711 126.207 70.1649 126.207 70.5262V72.0045C126.207 72.3657 126.501 72.6596 126.862 72.6596H128.34C128.702 72.6596 128.996 72.3657 128.996 72.0045V70.5262C128.996 70.1649 128.702 69.8711 128.34 69.8711ZM128.741 72.0044C128.741 72.2251 128.561 72.4047 128.34 72.4047H126.862C126.641 72.4047 126.462 72.2251 126.462 72.0044V70.5261C126.462 70.3054 126.641 70.1258 126.862 70.1258H128.34C128.561 70.1258 128.741 70.3054 128.741 70.5261V72.0044Z" fill="#3A312A"/>
<path d="M131.838 69.9985H130.36C130.068 69.9985 129.832 70.2347 129.832 70.5262V72.0045C129.832 72.2959 130.068 72.5322 130.36 72.5322H131.838C132.13 72.5322 132.366 72.2959 132.366 72.0045V70.5262C132.366 70.2347 132.13 69.9985 131.838 69.9985Z" fill="#DDD7EC"/>
<path d="M131.837 69.8711H130.358C129.997 69.8711 129.703 70.1649 129.703 70.5262V72.0045C129.703 72.3657 129.997 72.6596 130.358 72.6596H131.837C132.198 72.6596 132.492 72.3657 132.492 72.0045V70.5262C132.492 70.1649 132.198 69.8711 131.837 69.8711ZM132.237 72.0044C132.237 72.2251 132.057 72.4047 131.837 72.4047H130.358C130.138 72.4047 129.958 72.2251 129.958 72.0044V70.5261C129.958 70.3054 130.138 70.1258 130.358 70.1258H131.837C132.057 70.1258 132.237 70.3054 132.237 70.5261V72.0044V72.0044Z" fill="#3A312A"/>
<path d="M135.334 69.9985H133.856C133.564 69.9985 133.328 70.2347 133.328 70.5262V72.0045C133.328 72.2959 133.564 72.5322 133.856 72.5322H135.334C135.626 72.5322 135.862 72.2959 135.862 72.0045V70.5262C135.862 70.2347 135.626 69.9985 135.334 69.9985Z" fill="#DDD7EC"/>
<path d="M135.334 69.8711H133.856C133.495 69.8711 133.201 70.1649 133.201 70.5262V72.0045C133.201 72.3657 133.495 72.6596 133.856 72.6596H135.334C135.696 72.6596 135.99 72.3657 135.99 72.0045V70.5262C135.99 70.1649 135.696 69.8711 135.334 69.8711ZM135.735 72.0044C135.735 72.2251 135.555 72.4047 135.335 72.4047H133.856C133.635 72.4047 133.456 72.2251 133.456 72.0044V70.5261C133.456 70.3054 133.635 70.1258 133.856 70.1258H135.334C135.555 70.1258 135.735 70.3054 135.735 70.5261V72.0044H135.735Z" fill="#3A312A"/>
<path d="M138.832 69.9985H137.354C137.062 69.9985 136.826 70.2347 136.826 70.5262V72.0045C136.826 72.2959 137.062 72.5322 137.354 72.5322H138.832C139.124 72.5322 139.36 72.2959 139.36 72.0045V70.5262C139.36 70.2347 139.124 69.9985 138.832 69.9985Z" fill="#DDD7EC"/>
<path d="M138.833 69.8711H137.354C136.993 69.8711 136.699 70.1649 136.699 70.5262V72.0045C136.699 72.3657 136.993 72.6596 137.354 72.6596H138.833C139.194 72.6596 139.488 72.3657 139.488 72.0045V70.5262C139.488 70.1649 139.194 69.8711 138.833 69.8711ZM139.233 72.0044C139.233 72.2251 139.053 72.4047 138.833 72.4047H137.354C137.134 72.4047 136.954 72.2251 136.954 72.0044V70.5261C136.954 70.3054 137.134 70.1258 137.354 70.1258H138.833C139.053 70.1258 139.233 70.3054 139.233 70.5261V72.0044Z" fill="#3A312A"/>
<path d="M142.33 69.9985H140.852C140.56 69.9985 140.324 70.2347 140.324 70.5262V72.0045C140.324 72.2959 140.56 72.5322 140.852 72.5322H142.33C142.622 72.5322 142.858 72.2959 142.858 72.0045V70.5262C142.858 70.2347 142.622 69.9985 142.33 69.9985Z" fill="#DDD7EC"/>
<path d="M142.331 69.8711H140.852C140.491 69.8711 140.197 70.1649 140.197 70.5262V72.0045C140.197 72.3657 140.491 72.6596 140.852 72.6596H142.331C142.692 72.6596 142.986 72.3657 142.986 72.0045V70.5262C142.986 70.1649 142.692 69.8711 142.331 69.8711ZM142.731 72.0044C142.731 72.2251 142.551 72.4047 142.331 72.4047H140.852C140.632 72.4047 140.452 72.2251 140.452 72.0044V70.5261C140.452 70.3054 140.632 70.1258 140.852 70.1258H142.331C142.551 70.1258 142.731 70.3054 142.731 70.5261V72.0044Z" fill="#3A312A"/>
<path d="M142.763 55.8601C142.577 55.8601 142.399 55.9101 142.239 55.9986C141.879 55.4079 141.311 55.0266 140.672 55.0266C140.175 55.0266 139.722 55.2576 139.375 55.6379C139.143 55.4851 138.879 55.3981 138.598 55.3981C138.316 55.3981 138.05 55.4862 137.816 55.6411C137.469 55.2588 137.014 55.0266 136.516 55.0266C136.024 55.0266 135.573 55.2536 135.228 55.6283C134.999 55.4814 134.741 55.398 134.466 55.398C134.177 55.398 133.906 55.4896 133.669 55.6507C133.321 55.2627 132.863 55.0266 132.36 55.0266C131.722 55.0266 131.155 55.4072 130.795 55.997C130.635 55.9094 130.458 55.86 130.273 55.86C129.551 55.86 128.967 56.5929 128.967 57.4969C128.967 58.401 129.551 59.1338 130.273 59.1338C130.458 59.1338 130.635 59.0845 130.795 58.9969C131.155 59.5866 131.722 59.9673 132.36 59.9673C132.863 59.9673 133.321 59.7312 133.669 59.3432C133.906 59.5043 134.177 59.5958 134.466 59.5958C134.741 59.5958 134.999 59.5124 135.228 59.3656C135.574 59.7402 136.024 59.9673 136.516 59.9673C137.014 59.9673 137.469 59.735 137.816 59.3528C138.05 59.5077 138.316 59.5958 138.598 59.5958C138.879 59.5958 139.143 59.5088 139.375 59.3559C139.722 59.7363 140.175 59.9673 140.672 59.9673C141.311 59.9673 141.879 59.586 142.239 58.9953C142.399 59.0838 142.577 59.1338 142.763 59.1338C143.484 59.1338 144.069 58.4009 144.069 57.4969C144.069 56.593 143.484 55.8601 142.763 55.8601Z" fill="#BDDBFF"/>
<path d="M142.763 55.7326C142.594 55.7326 142.429 55.7702 142.271 55.8445C141.875 55.2424 141.297 54.8991 140.672 54.8991C140.194 54.8991 139.73 55.107 139.361 55.4864C138.885 55.2026 138.306 55.2039 137.831 55.4893C137.461 55.1081 136.997 54.8991 136.516 54.8991C136.042 54.8991 135.582 55.1039 135.213 55.4776C134.978 55.3403 134.727 55.2707 134.466 55.2707C134.195 55.2707 133.925 55.3491 133.683 55.4981C133.312 55.1112 132.845 54.8991 132.36 54.8991C131.736 54.8991 131.158 55.242 130.762 55.8432C130.605 55.7697 130.441 55.7326 130.273 55.7326C129.497 55.7326 128.865 56.5241 128.865 57.4969C128.865 58.4698 129.497 59.2612 130.273 59.2612C130.441 59.2612 130.605 59.224 130.762 59.1506C131.158 59.7519 131.736 60.0947 132.36 60.0947C132.845 60.0947 133.312 59.8826 133.683 59.4957C133.925 59.6447 134.195 59.7231 134.466 59.7231C134.727 59.7231 134.979 59.6536 135.214 59.5163C135.582 59.8899 136.042 60.0947 136.516 60.0947C136.997 60.0947 137.461 59.8858 137.831 59.5045C138.306 59.7899 138.885 59.7912 139.361 59.5074C139.731 59.8868 140.194 60.0947 140.672 60.0947C141.297 60.0947 141.876 59.7514 142.271 59.1494C142.429 59.2237 142.594 59.2612 142.763 59.2612C143.539 59.2612 144.171 58.4698 144.171 57.4969C144.171 56.5242 143.539 55.7326 142.763 55.7326ZM142.763 59.0064C142.596 59.0064 142.434 58.9635 142.28 58.8788C142.237 58.855 142.187 58.8713 142.158 58.918C141.801 59.5039 141.259 59.8399 140.672 59.8399C140.22 59.8399 139.783 59.634 139.442 59.2601C139.423 59.2393 139.399 59.2285 139.375 59.2285C139.359 59.2285 139.343 59.2334 139.328 59.2431C139.101 59.3926 138.855 59.4684 138.598 59.4684C138.343 59.4684 138.089 59.3895 137.864 59.2402C137.826 59.2154 137.781 59.2221 137.749 59.2571C137.408 59.6329 136.97 59.8399 136.516 59.8399C136.068 59.8399 135.634 59.6373 135.295 59.2692C135.263 59.2352 135.219 59.2285 135.182 59.2522C134.958 59.3957 134.718 59.4684 134.466 59.4684C134.205 59.4684 133.946 59.3863 133.717 59.2311C133.68 59.2054 133.633 59.2122 133.601 59.2479C133.259 59.6296 132.818 59.8398 132.36 59.8398C131.774 59.8398 131.233 59.5043 130.875 58.9194C130.847 58.8728 130.797 58.8564 130.754 58.8801C130.601 58.9639 130.439 59.0063 130.273 59.0063C129.609 59.0063 129.068 58.3292 129.068 57.4968C129.068 56.6645 129.609 55.9873 130.273 55.9873C130.439 55.9873 130.601 56.0298 130.754 56.1136C130.797 56.1371 130.847 56.1208 130.875 56.0743C131.233 55.4893 131.774 55.1538 132.36 55.1538C132.818 55.1538 133.259 55.3641 133.601 55.7458C133.633 55.7815 133.68 55.7883 133.717 55.7626C133.946 55.6074 134.204 55.5253 134.466 55.5253C134.717 55.5253 134.958 55.5981 135.182 55.7415C135.219 55.7652 135.263 55.7585 135.295 55.7245C135.634 55.3565 136.068 55.1538 136.516 55.1538C136.97 55.1538 137.408 55.3607 137.749 55.7366C137.781 55.7715 137.826 55.7782 137.864 55.7535C138.089 55.6042 138.343 55.5253 138.598 55.5253C138.855 55.5253 139.101 55.6012 139.328 55.7505C139.365 55.775 139.411 55.7683 139.442 55.7336C139.783 55.3597 140.22 55.1538 140.672 55.1538C141.259 55.1538 141.801 55.4898 142.158 56.0756C142.186 56.1224 142.237 56.1386 142.28 56.1149C142.434 56.0301 142.596 55.9872 142.763 55.9872C143.427 55.9872 143.967 56.6644 143.967 57.4967C143.968 58.3293 143.427 59.0064 142.763 59.0064Z" fill="#3A312A"/>
<path d="M143.793 63.9595C143.704 63.8847 143.587 63.8533 143.472 63.8728L142.841 63.9824C142.915 64.0563 142.957 64.1556 142.957 64.2609V70.3342C142.975 70.3945 142.985 70.459 142.985 70.5261V72.0047C142.985 72.0709 142.975 72.1355 142.957 72.1966V73.4621C142.957 73.6795 142.78 73.8561 142.562 73.8561H143.539C143.757 73.8561 143.933 73.6795 143.933 73.4621V64.2609C143.933 64.1446 143.882 64.035 143.793 63.9595Z" fill="#009FE7"/>
<path d="M142.407 55.9872C142.24 55.9872 142.077 56.0144 141.921 56.0696C142.514 56.2735 142.94 56.8365 142.94 57.4973C142.94 58.158 142.513 58.7211 141.92 58.9249C142.077 58.9793 142.24 59.0064 142.407 59.0064C143.24 59.0064 143.917 58.3296 143.917 57.4973C143.917 56.665 143.24 55.9872 142.407 55.9872Z" fill="#009FE7"/>
<path d="M126.964 56.4012C126.875 57.453 125.779 57.6191 125.779 57.6191C126.721 57.6634 126.955 58.898 126.955 58.898C126.975 58.0177 128.167 57.6061 128.167 57.6061C127.274 57.5527 126.964 56.4012 126.964 56.4012Z" fill="#EEB51B"/>
<path d="M128.175 57.4698C127.392 57.423 127.098 56.3761 127.096 56.3654C127.078 56.3016 127.018 56.2595 126.951 56.2652C126.886 56.2712 126.833 56.3236 126.828 56.3895C126.75 57.3187 125.799 57.4778 125.759 57.4841C125.689 57.4946 125.639 57.556 125.643 57.6261C125.646 57.6961 125.703 57.752 125.773 57.7554C126.594 57.794 126.819 58.9123 126.821 58.9235C126.833 58.9882 126.89 59.0342 126.955 59.0342C126.959 59.0342 126.962 59.0341 126.966 59.0338C127.036 59.028 127.09 58.9707 127.091 58.901C127.109 58.127 128.2 57.7387 128.211 57.7349C128.273 57.7135 128.311 57.6518 128.302 57.5873C128.293 57.523 128.24 57.4738 128.175 57.4698ZM126.941 58.4109C126.817 58.1262 126.603 57.7827 126.25 57.6035C126.517 57.4757 126.833 57.2476 126.997 56.851C127.138 57.1303 127.379 57.4768 127.755 57.6445C127.481 57.7936 127.125 58.0451 126.941 58.4109Z" fill="#3A312A"/>
<path d="M124.99 57.9457C124.928 58.6897 124.152 58.8073 124.152 58.8073C124.818 58.8386 124.984 59.7118 124.984 59.7118C124.998 59.0893 125.841 58.7981 125.841 58.7981C125.21 58.7602 124.99 57.9457 124.99 57.9457Z" fill="#EEB51B"/>
<path d="M125.849 58.6618C125.324 58.6304 125.124 57.9173 125.122 57.9101C125.104 57.8462 125.043 57.8047 124.978 57.8098C124.912 57.8158 124.86 57.8683 124.854 57.9343C124.801 58.5593 124.158 58.6681 124.132 58.6724C124.062 58.6828 124.012 58.7442 124.016 58.8143C124.019 58.8843 124.076 58.9402 124.146 58.9435C124.695 58.9694 124.848 59.7298 124.85 59.7373C124.862 59.8021 124.919 59.8483 124.984 59.8483C124.987 59.8483 124.991 59.8482 124.995 59.8478C125.065 59.8421 125.118 59.7847 125.12 59.7149C125.132 59.1956 125.878 58.9295 125.885 58.927C125.947 58.9057 125.985 58.8439 125.976 58.7794C125.967 58.7149 125.914 58.6656 125.849 58.6618ZM124.977 59.2799C124.893 59.1084 124.764 58.9209 124.572 58.7996C124.741 58.7049 124.909 58.5605 125.015 58.3524C125.112 58.5229 125.257 58.7121 125.465 58.8276C125.297 58.9277 125.102 59.0768 124.977 59.2799Z" fill="#3A312A"/>
<path d="M124.99 55.5208C124.928 56.2648 124.152 56.3823 124.152 56.3823C124.818 56.4136 124.984 57.2869 124.984 57.2869C124.998 56.6642 125.841 56.3732 125.841 56.3732C125.21 56.3353 124.99 55.5208 124.99 55.5208Z" fill="#EEB51B"/>
<path d="M125.849 56.2369C125.324 56.2055 125.124 55.4923 125.122 55.485C125.104 55.4212 125.043 55.3791 124.978 55.3848C124.912 55.3908 124.86 55.4433 124.854 55.5092C124.801 56.1343 124.158 56.243 124.132 56.2473C124.062 56.2578 124.012 56.3192 124.016 56.3893C124.019 56.4594 124.076 56.5152 124.146 56.5186C124.695 56.5444 124.848 57.3049 124.85 57.3123C124.862 57.3771 124.919 57.4233 124.984 57.4233C124.987 57.4233 124.991 57.4231 124.995 57.4229C125.065 57.4171 125.118 57.3597 125.12 57.29C125.132 56.7706 125.878 56.5046 125.885 56.502C125.947 56.4807 125.985 56.419 125.976 56.3545C125.967 56.2901 125.914 56.2408 125.849 56.2369ZM124.977 56.855C124.893 56.6835 124.764 56.4959 124.572 56.3748C124.741 56.2801 124.909 56.1355 125.015 55.9276C125.112 56.098 125.257 56.2873 125.465 56.4027C125.297 56.5028 125.102 56.6519 124.977 56.855Z" fill="#3A312A"/>
<g clip-path="url(#clip4_3803_24087)">
<path d="M110.521 91.9386C110.094 91.5119 109.485 91.4295 109.341 91.5732C109.205 91.7093 109.28 92.3265 109.707 92.7532C110.133 93.18 110.662 93.3436 110.887 93.1187C111.111 92.8938 110.948 92.3654 110.521 91.9386Z" fill="#54B2A2"/>
<path d="M111.097 92.5587C111.021 92.3123 110.855 92.0534 110.632 91.8296C110.421 91.6188 110.148 91.4635 109.864 91.3924C109.584 91.3224 109.348 91.3493 109.234 91.4642C109.008 91.6898 109.145 92.4082 109.599 92.8622C109.823 93.086 110.082 93.2513 110.328 93.3276C110.429 93.3587 110.523 93.3741 110.611 93.374C110.767 93.374 110.9 93.3247 110.997 93.2276C111.148 93.0765 111.184 92.8389 111.097 92.5587ZM110.779 93.0097C110.714 93.0753 110.582 93.0836 110.419 93.0331C110.223 92.9723 110.003 92.8305 109.817 92.6443C109.431 92.2588 109.402 91.7558 109.45 91.6835C109.468 91.6702 109.51 91.6615 109.57 91.6615C109.756 91.6615 110.114 91.7476 110.414 92.0475C110.6 92.2337 110.742 92.4534 110.803 92.6498C110.853 92.8131 110.844 92.9443 110.779 93.0097Z" fill="#3A312A"/>
<path d="M112.635 91.5733C112.491 91.4295 111.881 91.512 111.455 91.9388C111.028 92.3655 110.864 92.8939 111.089 93.1188C111.314 93.3437 111.842 93.1801 112.269 92.7534C112.696 92.3266 112.771 91.7094 112.635 91.5733Z" fill="#54B2A2"/>
<path d="M112.744 91.4642C112.516 91.2368 111.812 91.3632 111.346 91.8296C111.122 92.0534 110.957 92.3124 110.88 92.5587C110.794 92.8389 110.829 93.0765 110.98 93.2276C111.078 93.325 111.212 93.3715 111.366 93.3715C111.669 93.3715 112.05 93.1903 112.378 92.8622C112.833 92.4081 112.969 91.6897 112.744 91.4642ZM112.161 92.6443C111.781 93.0242 111.339 93.1503 111.198 93.0097C111.133 92.9443 111.124 92.8131 111.175 92.6499C111.236 92.4534 111.377 92.2339 111.564 92.0476C111.867 91.744 112.23 91.6596 112.413 91.6596C112.468 91.6596 112.507 91.6673 112.523 91.679C112.575 91.7558 112.546 92.2588 112.161 92.6443Z" fill="#3A312A"/>
<path d="M110.986 92.6326C110.901 92.6326 110.832 92.7015 110.832 92.7867V93.8899C110.832 93.9751 110.901 94.044 110.986 94.044C111.071 94.044 111.14 93.9751 111.14 93.8899V92.7867C111.14 92.7015 111.071 92.6326 110.986 92.6326Z" fill="#3A312A"/>
<path d="M102.627 91.9386C102.2 91.5119 101.59 91.4295 101.447 91.5732C101.31 91.7093 101.385 92.3265 101.812 92.7532C102.239 93.18 102.767 93.3436 102.992 93.1187C103.217 92.8938 103.053 92.3654 102.627 91.9386Z" fill="#54B2A2"/>
<path d="M102.737 91.8296C102.271 91.3632 101.567 91.2367 101.339 91.4642C101.114 91.6896 101.25 92.4081 101.704 92.8621C102.033 93.1903 102.413 93.3714 102.717 93.3714C102.871 93.3714 103.005 93.325 103.102 93.2276C103.392 92.9382 103.231 92.324 102.737 91.8296ZM102.885 93.0098C102.744 93.1506 102.302 93.0242 101.922 92.6443C101.537 92.2589 101.508 91.7559 101.556 91.6835C101.629 91.6286 102.124 91.6521 102.519 92.0475C102.899 92.4275 103.025 92.8689 102.885 93.0098Z" fill="#3A312A"/>
<path d="M104.74 91.5733C104.596 91.4295 103.987 91.512 103.56 91.9388C103.133 92.3655 102.97 92.8939 103.195 93.1188C103.42 93.3438 103.948 93.1801 104.375 92.7534C104.802 92.3266 104.876 91.7095 104.74 91.5733Z" fill="#54B2A2"/>
<path d="M104.849 91.4643C104.734 91.3493 104.499 91.3225 104.219 91.3925C103.935 91.4636 103.662 91.6189 103.451 91.8296C103.227 92.0534 103.062 92.3124 102.986 92.5588C102.899 92.8389 102.935 93.0765 103.086 93.2277C103.183 93.3247 103.315 93.3741 103.472 93.3741C103.56 93.3741 103.654 93.3588 103.755 93.3276C104.001 93.2513 104.26 93.086 104.484 92.8622C104.938 92.4082 105.075 91.6898 104.849 91.4643ZM104.266 92.6443C104.08 92.8306 103.86 92.9724 103.664 93.0332C103.501 93.0836 103.369 93.0753 103.304 93.0098C103.238 92.9443 103.23 92.8131 103.28 92.65C103.341 92.4534 103.483 92.2339 103.669 92.0476C103.973 91.744 104.335 91.6596 104.518 91.6596C104.573 91.6596 104.613 91.6673 104.628 91.679C104.681 91.7559 104.651 92.2589 104.266 92.6443Z" fill="#3A312A"/>
<path d="M103.094 92.6326C103.008 92.6326 102.939 92.7015 102.939 92.7867V93.8899C102.939 93.9751 103.008 94.044 103.094 94.044C103.179 94.044 103.248 93.9751 103.248 93.8899V92.7867C103.248 92.7015 103.179 92.6326 103.094 92.6326Z" fill="#3A312A"/>
<path d="M93.65 91.9386C93.2233 91.5119 92.6138 91.4295 92.47 91.5732C92.3339 91.7093 92.4087 92.3265 92.8354 92.7532C93.2622 93.18 93.7905 93.3436 94.0155 93.1187C94.2405 92.8938 94.0768 92.3654 93.65 91.9386Z" fill="#54B2A2"/>
<path d="M94.2239 92.5588C94.1475 92.3124 93.9822 92.0535 93.7585 91.8296C93.2921 91.3632 92.5882 91.2367 92.3605 91.4642C92.1351 91.6896 92.2719 92.4081 92.726 92.8621C93.0541 93.1904 93.4349 93.3714 93.7387 93.3714C93.8925 93.3714 94.0266 93.325 94.1239 93.2276C94.275 93.0766 94.3105 92.8389 94.2239 92.5588ZM93.9059 93.0098C93.7649 93.1506 93.3237 93.0242 92.9438 92.6443C92.5583 92.2589 92.529 91.7559 92.5769 91.6835C92.6499 91.6286 93.1451 91.6521 93.5406 92.0475C93.7268 92.2338 93.8686 92.4535 93.9294 92.6499C93.98 92.8131 93.9714 92.9443 93.9059 93.0098Z" fill="#3A312A"/>
<path d="M95.7616 91.5733C95.6178 91.4295 95.0084 91.512 94.5816 91.9388C94.1548 92.3655 93.9913 92.8939 94.2162 93.1188C94.441 93.3438 94.9694 93.1801 95.3962 92.7534C95.823 92.3266 95.8978 91.7095 95.7616 91.5733Z" fill="#54B2A2"/>
<path d="M95.8707 91.4643C95.7556 91.3493 95.5202 91.3225 95.2404 91.3925C94.9561 91.4636 94.6835 91.6189 94.4728 91.8296C94.2489 92.0534 94.0837 92.3124 94.0074 92.5588C93.9206 92.8389 93.9562 93.0765 94.1074 93.2277C94.2047 93.3251 94.3388 93.3715 94.4926 93.3715C94.7964 93.3715 95.1772 93.1904 95.5054 92.8622C95.7884 92.5793 95.8991 92.2575 95.9398 92.091C96.0086 91.8105 95.9827 91.5762 95.8707 91.4643ZM95.2875 92.6443C94.9074 93.0243 94.4658 93.1503 94.3253 93.0098C94.2598 92.9443 94.2513 92.8131 94.3018 92.65C94.3626 92.4534 94.5044 92.2339 94.6907 92.0476C94.9942 91.7441 95.3564 91.6596 95.5396 91.6596C95.595 91.6596 95.634 91.6673 95.6499 91.679C95.7021 91.7559 95.673 92.2588 95.2875 92.6443Z" fill="#3A312A"/>
<path d="M94.115 92.6326C94.03 92.6326 93.9609 92.7015 93.9609 92.7867V93.8899C93.9609 93.9751 94.03 94.044 94.115 94.044C94.2001 94.044 94.2691 93.9751 94.2691 93.8899V92.7867C94.2691 92.7015 94.2001 92.6326 94.115 92.6326Z" fill="#3A312A"/>
<path d="M94.5935 71.9954C94.493 73.1882 93.25 73.3765 93.25 73.3765C94.3172 73.4267 94.5832 74.8267 94.5832 74.8267C94.606 73.8285 95.9573 73.3617 95.9573 73.3617C94.9451 73.3012 94.5935 71.9954 94.5935 71.9954Z" fill="#EB3040"/>
<path d="M95.9663 73.2079C95.0782 73.1548 94.7453 71.9671 94.7421 71.9551C94.7226 71.883 94.6544 71.8354 94.5793 71.8419C94.5049 71.8487 94.446 71.9079 94.4397 71.9823C94.3508 73.0366 93.2722 73.217 93.2267 73.2241C93.1483 73.2359 93.0918 73.3053 93.0959 73.3845C93.1 73.4636 93.1634 73.5267 93.2426 73.5305C94.1742 73.5744 94.4292 74.8429 94.4316 74.8557C94.4458 74.9287 94.5097 74.9807 94.5829 74.9807C94.5872 74.9807 94.5916 74.9806 94.5959 74.9802C94.6744 74.9736 94.7353 74.909 94.7371 74.8303C94.7572 73.9522 95.9951 73.5118 96.0076 73.5075C96.077 73.4833 96.1198 73.4136 96.1097 73.3407C96.0995 73.2679 96.0396 73.2123 95.9663 73.2079ZM94.5669 74.2759C94.427 73.9526 94.184 73.562 93.783 73.3588C94.0857 73.214 94.4454 72.9548 94.6304 72.5039C94.7904 72.8211 95.0641 73.2151 95.4914 73.405C95.1809 73.5744 94.776 73.8602 94.5669 74.2759Z" fill="#3A312A"/>
<path d="M92.3976 73.8281C92.3268 74.6684 91.4512 74.801 91.4512 74.801C92.203 74.8365 92.3904 75.8227 92.3904 75.8227C92.4064 75.1195 93.3584 74.7907 93.3584 74.7907C92.6453 74.748 92.3976 73.8281 92.3976 73.8281Z" fill="#EB3040"/>
<path d="M93.3673 74.6368C92.7749 74.6014 92.5483 73.7959 92.5462 73.7878C92.5266 73.7157 92.4571 73.6684 92.3836 73.6746C92.309 73.6813 92.2501 73.7406 92.2438 73.8152C92.1843 74.5211 91.4583 74.6438 91.4279 74.6487C91.3495 74.6605 91.293 74.7298 91.2971 74.809C91.3012 74.8881 91.3646 74.9512 91.4438 74.955C92.0638 74.9842 92.2373 75.8431 92.2389 75.8515C92.2528 75.9247 92.3169 75.9768 92.3902 75.9768C92.3944 75.9768 92.3987 75.9767 92.4031 75.9763C92.4816 75.9699 92.5426 75.905 92.5444 75.8262C92.5578 75.2397 93.4003 74.9392 93.4086 74.9363C93.4781 74.9123 93.5209 74.8425 93.511 74.7697C93.5008 74.6968 93.4407 74.6413 93.3673 74.6368ZM92.3826 75.3349C92.2877 75.1412 92.1422 74.9294 91.9257 74.7925C92.1163 74.6854 92.3056 74.5223 92.4262 74.2873C92.5348 74.4799 92.6988 74.6937 92.9338 74.824C92.7437 74.9373 92.524 75.1056 92.3826 75.3349Z" fill="#3A312A"/>
<path d="M92.3976 71.0893C92.3268 71.9296 91.4512 72.0623 91.4512 72.0623C92.203 72.0977 92.3904 73.084 92.3904 73.084C92.4064 72.3807 93.3584 72.052 93.3584 72.052C92.6453 72.0092 92.3976 71.0893 92.3976 71.0893Z" fill="#EB3040"/>
<path d="M93.3673 71.8982C92.7749 71.8628 92.5483 71.0572 92.5462 71.0491C92.5266 70.977 92.4571 70.9298 92.3836 70.9359C92.309 70.9425 92.2501 71.0018 92.2438 71.0764C92.1843 71.7823 91.4583 71.9052 91.4279 71.91C91.3495 71.9218 91.293 71.9912 91.2971 72.0704C91.3012 72.1495 91.3646 72.2126 91.4438 72.2164C92.0638 72.2456 92.2373 73.1044 92.2389 73.1129C92.2528 73.1861 92.3169 73.2382 92.3902 73.2382C92.3944 73.2382 92.3987 73.2381 92.4031 73.2377C92.4816 73.2312 92.5426 73.1664 92.5444 73.0876C92.5578 72.5011 93.4003 72.2006 93.4086 72.1977C93.4781 72.1736 93.5209 72.1039 93.511 72.031C93.5008 71.9582 93.4407 71.9026 93.3673 71.8982ZM92.3826 72.5962C92.2877 72.4025 92.1422 72.1907 91.9257 72.0537C92.1163 71.9468 92.3056 71.7835 92.4262 71.5486C92.5348 71.7411 92.6988 71.9549 92.9338 72.0853C92.7438 72.1985 92.524 72.3669 92.3826 72.5962Z" fill="#3A312A"/>
<path d="M107.677 89.2267C107.445 89.2267 107.217 89.2031 106.994 89.1568V94.004H108.361V89.1568C108.138 89.2031 107.91 89.2267 107.677 89.2267Z" fill="#555555"/>
<path d="M108.458 89.0372C108.422 89.008 108.375 88.9966 108.329 89.0059C107.903 89.0944 107.452 89.0944 107.025 89.0059C106.98 88.9967 106.933 89.0081 106.897 89.0372C106.861 89.0665 106.84 89.1104 106.84 89.1568V94.004C106.84 94.0891 106.909 94.1581 106.994 94.1581H108.36C108.445 94.1581 108.514 94.0891 108.514 94.004V89.1568C108.514 89.1104 108.494 89.0665 108.458 89.0372ZM108.206 93.8499H107.148V89.3409C107.497 89.3938 107.857 89.3938 108.206 89.3409V93.8499H108.206Z" fill="#3A312A"/>
<path d="M110.653 76.1471L110.241 75.1823C109.656 73.8435 109.056 72.5964 108.584 71.6491C108.17 70.8172 107.185 70.8174 106.77 71.6493C106.454 72.2835 106.081 73.0528 105.693 73.8931L105.093 75.2282C103.97 77.8025 102.906 80.7063 102.906 82.4687C102.906 86.201 105.042 89.2266 107.677 89.2266C110.312 89.2266 112.448 86.201 112.448 82.4687C112.448 80.9134 111.62 78.4693 110.653 76.1471Z" fill="#009FE7"/>
<path d="M110.795 76.0866L110.382 75.1206C109.89 73.9933 109.331 72.8022 108.722 71.5803C108.501 71.1363 108.11 70.8711 107.677 70.8711C107.244 70.8711 106.853 71.1363 106.632 71.5805C106.257 72.3328 105.894 73.0891 105.553 73.8285C105.517 73.9058 105.551 73.9973 105.628 74.033C105.706 74.0688 105.797 74.0349 105.833 73.9577C106.173 73.221 106.534 72.4675 106.908 71.718C107.076 71.3807 107.364 71.1793 107.677 71.1793C107.991 71.1793 108.278 71.3806 108.446 71.7178C109.053 72.9351 109.609 74.1215 110.099 75.2429L110.511 76.2064C111.694 79.0495 112.294 81.1566 112.294 82.4687C112.294 86.11 110.223 89.0725 107.677 89.0725C105.131 89.0725 103.06 86.11 103.06 82.4687C103.06 81.0328 103.812 78.5503 105.234 75.2899C105.268 75.2119 105.232 75.1211 105.154 75.0869C105.076 75.0531 104.986 75.0887 104.952 75.1666C103.492 78.5127 102.752 80.9695 102.752 82.4686C102.752 86.2799 104.961 89.3806 107.677 89.3806C110.393 89.3806 112.602 86.2799 112.602 82.4686C112.602 81.1156 111.994 78.9688 110.795 76.0866Z" fill="#3A312A"/>
<path d="M99.15 89.2267C98.9178 89.2267 98.6897 89.2031 98.4668 89.1568V94.004H99.8332V89.1568C99.6103 89.2031 99.3822 89.2267 99.15 89.2267Z" fill="#555555"/>
<path d="M99.9304 89.0372C99.8943 89.008 99.8474 88.9966 99.8018 89.0059C99.3754 89.0944 98.9243 89.0944 98.4979 89.0059C98.4525 88.9967 98.4055 89.0081 98.3693 89.0372C98.3334 89.0665 98.3125 89.1104 98.3125 89.1568V94.004C98.3125 94.0891 98.3815 94.1581 98.4666 94.1581H99.833C99.9181 94.1581 99.9871 94.0891 99.9871 94.004V89.1568C99.9871 89.1104 99.9663 89.0665 99.9304 89.0372ZM99.6789 93.8499H98.6207V89.3409C98.9698 89.3938 99.3298 89.3938 99.679 89.3409V93.8499H99.6789Z" fill="#3A312A"/>
<path d="M102.126 76.1471L101.714 75.1823C101.129 73.8435 100.529 72.5964 100.057 71.6491C99.6423 70.8172 98.6572 70.8174 98.2426 71.6493C97.9266 72.2835 97.5533 73.0528 97.1656 73.8931L96.5658 75.2282C95.4429 77.8025 94.3789 80.7063 94.3789 82.4687C94.3789 86.201 96.5149 89.2266 99.1498 89.2266C101.785 89.2266 103.921 86.201 103.921 82.4687C103.921 80.9134 103.092 78.4693 102.126 76.1471Z" fill="#009FE7"/>
<path d="M102.267 76.0866L101.855 75.1206C101.362 73.9933 100.804 72.8022 100.195 71.5803C99.9735 71.1363 99.5829 70.8711 99.1498 70.8711C98.7167 70.8711 98.326 71.1363 98.1046 71.5805C97.7298 72.3328 97.3666 73.0891 97.0254 73.8285C96.9898 73.9058 97.0235 73.9973 97.1007 74.033C97.1783 74.0688 97.2695 74.0349 97.3053 73.9577C97.6452 73.221 98.0069 72.4675 98.3804 71.718C98.5485 71.3807 98.8362 71.1793 99.1497 71.1793C99.4633 71.1793 99.7508 71.3806 99.9187 71.7178C100.525 72.9351 101.082 74.1215 101.572 75.2429L101.983 76.2064C103.167 79.0495 103.766 81.1566 103.766 82.4687C103.766 86.11 101.695 89.0725 99.1496 89.0725C96.6039 89.0725 94.5328 86.11 94.5328 82.4687C94.5328 81.0328 95.2845 78.5503 96.7067 75.2899C96.7407 75.2119 96.7051 75.1211 96.6271 75.0869C96.549 75.0531 96.4582 75.0887 96.4242 75.1666C94.9646 78.5127 94.2246 80.9695 94.2246 82.4686C94.2246 86.2799 96.434 89.3806 99.1496 89.3806C101.865 89.3806 104.075 86.2799 104.075 82.4686C104.075 81.1156 103.467 78.9688 102.267 76.0866Z" fill="#3A312A"/>
<path d="M110.511 76.2066L110.1 75.2429C109.61 74.121 109.053 72.9344 108.447 71.718C108.278 71.381 107.991 71.1796 107.677 71.1796C107.433 71.1796 107.204 71.3019 107.035 71.5166C107.083 71.5772 107.126 71.644 107.163 71.718C107.769 72.9344 108.326 74.121 108.816 75.2429L109.227 76.2066C110.41 79.0493 111.01 81.1564 111.01 82.4684C111.01 85.7981 109.278 88.5607 107.035 89.0087C107.245 89.0508 107.459 89.0723 107.677 89.0723C110.223 89.0723 112.294 86.1094 112.294 82.4684C112.294 81.1564 111.694 79.0493 110.511 76.2066Z" fill="#0071A5"/>
<path d="M101.983 76.2066L101.572 75.2429C101.082 74.121 100.526 72.9344 99.9194 71.718C99.7509 71.381 99.4633 71.1796 99.1499 71.1796C98.9054 71.1796 98.6763 71.3019 98.5078 71.5166C98.5561 71.5772 98.5982 71.644 98.6352 71.718C99.2414 72.9344 99.7982 74.121 100.288 75.2429L100.699 76.2066C101.883 79.0493 102.483 81.1564 102.483 82.4684C102.483 85.7981 100.751 88.5607 98.5078 89.0087C98.7184 89.0508 98.9321 89.0723 99.1499 89.0723C101.696 89.0723 103.767 86.1094 103.767 82.4684C103.767 81.1564 103.167 79.0493 101.983 76.2066Z" fill="#0071A5"/>
<path d="M113.302 93.8499H90.4939C90.4089 93.8499 90.3398 93.9188 90.3398 94.004C90.3398 94.0891 90.4089 94.1581 90.4939 94.1581H113.302C113.387 94.1581 113.456 94.0891 113.456 94.004C113.456 93.9188 113.387 93.8499 113.302 93.8499Z" fill="#3A312A"/>
</g>
<defs>
<clipPath id="clip0_3803_24087">
<rect width="238.835" height="169" fill="white"/>
</clipPath>
<clipPath id="clip1_3803_24087">
<rect width="23.2869" height="23.2869" fill="white" transform="translate(73.9805 26.4793)"/>
</clipPath>
<clipPath id="clip2_3803_24087">
<rect width="23.2869" height="23.2869" fill="white" transform="translate(158.092 59.189)"/>
</clipPath>
<clipPath id="clip3_3803_24087">
<rect width="23.2869" height="23.2869" fill="white" transform="translate(70.8652 106.696)"/>
</clipPath>
<clipPath id="clip4_3803_24087">
<rect width="23.2869" height="23.2869" fill="white" transform="translate(90.3398 70.8711)"/>
</clipPath>
</defs>
</svg>
